<svg width="260" height="260" viewBox="0 0 260 260" fill="none" xmlns="http://www.w3.org/2000/svg">
<rect width="260" height="260" rx="130" fill="#FAB8D4"/>
<path d="M203.294 175.689C202.298 176.188 201.506 175.699 201.377 174.587C201.217 173.198 202.729 171.255 204.109 171.077C204.824 170.985 205.289 171.528 205.299 172.637C205.17 173.871 204.601 175.033 203.294 175.689Z" fill="black"/>
<path d="M198.724 140.099C197.722 141.23 196.114 141.065 195.452 139.705C195.102 138.986 195.037 138.125 194.874 137.321C194.821 137.061 194.865 136.781 194.865 136.511C194.811 136.502 194.756 136.492 194.702 136.483C194.918 135.303 195.065 134.103 195.384 132.952C195.544 132.376 195.948 131.816 196.372 131.376C197.083 130.638 198.267 130.666 198.92 131.455C199.328 131.948 199.681 132.578 199.807 133.199C200.181 135.044 200.087 136.901 199.506 138.701C199.344 139.201 199.072 139.707 198.724 140.099Z" fill="black"/>
<path d="M183.751 183.296C186.01 183.508 188.255 183.894 190.516 184.034C191.776 184.113 193.057 183.822 194.33 183.735C195.026 183.686 195.732 183.651 196.422 183.726C197 183.789 197.57 184.045 197.742 184.685C197.919 185.341 197.577 185.867 197.082 186.233C196.686 186.526 196.222 186.814 195.75 186.9C194.122 187.194 192.476 187.399 190.748 187.65C188.35 187.313 185.886 186.991 183.433 186.61C182.587 186.478 181.822 186.107 181.245 185.419C180.632 184.689 180.75 183.784 181.639 183.488C182.295 183.269 183.055 183.231 183.751 183.296Z" fill="black"/>
<path d="M176.853 69.83C176.215 70.1623 175.889 70.0822 175.684 69.3776C175.496 68.7292 175.345 68.0321 175.376 67.3653C175.445 65.8737 175.595 64.381 175.793 62.9002C175.972 61.5493 176.613 61.0514 177.994 61.0406C179.058 61.0319 180.122 61.0395 180.715 61.0395C185.293 61.2278 189.258 60.4431 193.159 59.2535C193.952 59.011 194.715 58.6733 195.513 58.4546C196.786 58.1061 197.386 58.5953 197.34 59.9029C197.326 60.2959 197.276 60.6975 197.173 61.0774C196.537 63.4306 195.789 65.746 194.65 67.913C194.399 68.3904 194.11 68.8515 193.799 69.292C193.013 70.408 192.002 70.7815 190.686 70.4438C190.198 70.3182 189.72 70.1483 189.246 69.9761C187.13 69.2076 184.939 68.7714 182.703 68.6014C180.646 68.4467 178.688 68.8731 176.853 69.83Z" fill="#FAB8D4"/>
<path d="M187.287 172.552C187.482 172.58 187.681 172.621 187.862 172.695C189.315 173.286 190.422 174.274 191.183 175.643C191.285 175.827 191.347 176.046 191.379 176.256C191.517 177.2 191.114 177.649 190.145 177.687C189.816 177.606 189.461 177.578 189.162 177.435C187.84 176.803 186.742 175.885 185.897 174.685C185.542 174.182 185.45 173.594 185.791 173.057C186.131 172.52 186.706 172.47 187.287 172.552Z" fill="black"/>
<path d="M175.367 71.8767C175.761 71.0725 175.926 71.1244 176.683 71.5542C177.271 71.8887 177.986 72.0705 178.664 72.1593C179.315 72.2437 179.998 72.1636 180.657 72.0802C182.68 71.827 184.591 72.3389 186.514 72.8488C189.266 73.5783 191.695 75.0256 194.215 76.265C196.462 77.3701 198.63 78.6398 200.888 79.7223C202.23 80.3653 203.645 80.9281 205.088 81.2756C208.737 82.1556 212.285 81.7194 215.682 80.1055C216.105 79.9041 216.524 79.6855 216.963 79.5285C217.989 79.1637 218.641 79.561 218.534 80.6305C218.4 81.9662 218.175 83.316 217.787 84.5987C216.76 88.003 215.529 91.3445 213.789 94.4565C212.192 97.3109 210.316 99.991 208.019 102.333C206.116 104.273 203.87 105.733 201.299 106.666C199.39 107.358 198.23 107.133 197.177 105.659C195.569 103.407 193.771 101.328 191.84 99.3491C189.961 97.4224 188.283 95.3224 186.8 93.0753C185.772 91.5177 184.584 90.1051 183.278 88.7726C182.156 87.6284 181.188 86.3328 180.058 85.1994C178.926 84.0661 177.709 83.014 176.473 81.9943C175.186 80.9314 174.344 79.6963 174.448 77.9471C174.63 76.3169 174.797 74.6857 175.004 73.0588C175.056 72.655 175.188 72.2437 175.367 71.8767Z" fill="#FAB8D4"/>
<path d="M173.246 46.1828C172.993 46.842 172.492 46.9037 172.064 46.3495C171.826 46.041 171.618 45.6881 171.481 45.3234C170.921 43.8263 170.64 42.2687 170.583 41.1051C170.557 39.0441 171.063 37.625 172.248 36.4766C172.326 36.4008 172.405 36.3272 172.488 36.259C173.364 35.5457 173.997 35.7654 174.209 36.8771C174.276 37.2278 174.313 37.598 174.285 37.9519C174.113 40.1071 173.942 42.2633 173.718 44.413C173.655 45.0149 173.464 45.6156 173.246 46.1828Z" fill="#FAB8D4"/>
<path d="M156.535 56.2746C157.273 55.7096 157.958 55.8752 158.349 56.7119C158.637 57.3289 158.843 57.9892 159.035 58.6452C160.463 63.4858 163.012 67.6619 166.512 71.2729C167.083 71.8618 167.752 72.311 168.567 72.5231C169.273 72.7072 169.926 72.6714 170.501 72.141C171.308 72.7948 171.552 74.9911 170.869 75.9383C170.537 76.3983 170.093 76.6072 169.552 76.4557C169.124 76.3355 168.698 76.1591 168.315 75.9328C164.112 73.4562 159.784 71.235 155.226 69.4804C153.846 68.95 152.453 68.451 151.07 67.9293C150.716 67.7961 150.363 67.6532 150.026 67.4833C148.904 66.915 148.657 66.0978 149.349 65.0467C149.803 64.3561 150.345 63.7218 150.86 63.0723C152.341 61.2095 153.819 59.3444 155.318 57.4967C155.68 57.0518 156.083 56.6221 156.535 56.2746Z" fill="#FAB8D4"/>
<path d="M161.409 130.794C162.5 129.084 164.612 129.01 165.956 130.528C166.583 131.237 166.976 132.069 167.105 132.995C167.484 135.738 167.265 138.436 166.258 141.026C166.011 141.659 165.581 142.273 165.093 142.749C164.013 143.802 162.458 143.609 161.568 142.387C160.912 141.486 160.616 140.447 160.532 139.354C160.453 138.312 160.433 137.267 160.386 136.205C160.432 135.212 160.382 134.188 160.553 133.202C160.697 132.371 160.96 131.496 161.409 130.794Z" fill="black"/>
<path d="M165.989 44.4308C166.634 43.934 167.271 44.0725 167.682 44.7707C167.918 45.1712 168.094 45.6139 168.243 46.0556C168.807 47.7388 169.438 49.3873 170.611 50.761C170.986 51.1983 171.393 51.6096 171.795 52.022C172.728 52.9789 172.934 53.4941 172.941 54.8342C172.754 57.0077 172.56 59.1802 172.385 61.3537C172.208 63.5825 172.053 65.8123 171.885 68.0411C171.81 69.0337 171.714 70.0209 171.134 70.8814C170.707 71.5157 170.483 71.5254 169.997 70.9366C169.01 69.7416 167.92 68.6158 167.054 67.3386C166.027 65.8221 165.104 64.219 164.292 62.5769C162.858 59.6749 161.765 56.6419 161.181 53.4378C160.862 51.6843 161.096 50.1331 162.326 48.7509C163.2 47.7702 163.937 46.6682 164.768 45.6475C165.13 45.2037 165.537 44.7794 165.989 44.4308Z" fill="#FAB8D4"/>
<path d="M123.66 63.9927C124.014 64.4744 124.618 64.2774 125.021 64.1291C125.695 63.8813 126.421 63.5544 126.907 63.0499C129.469 60.3904 131.508 57.366 132.922 53.939C133.162 53.3556 133.408 52.7732 133.673 52.2006C134.051 51.3888 134.58 50.6949 135.287 50.1299C137.823 48.1047 140.368 46.0892 142.868 44.0206C143.823 43.2293 144.689 42.3255 145.56 41.4379C147.426 39.5339 149.457 37.7782 150.967 35.5483C151.574 34.6531 152.154 33.7396 152.745 32.8336C152.815 32.7275 152.875 32.6171 152.947 32.5132C153.789 31.2857 154.851 31.2305 155.65 32.4948C156.36 33.6162 156.973 34.8155 157.485 36.0398C158.784 39.1464 159.194 42.3926 158.809 45.7428C158.6 47.5645 157.669 49.0237 156.57 50.4081C153.073 54.8158 149.575 59.2203 146.075 63.6269C145.941 63.7957 145.799 63.9592 145.665 64.1302C144.57 65.5255 143.191 66.097 141.388 65.8351C138.36 65.3945 135.307 65.5547 132.261 65.6716C131.388 65.7052 130.677 66.1252 130.02 66.6491C129.693 66.9099 129.658 67.2899 129.974 67.5345C130.45 67.9025 130.961 68.3128 131.522 68.4611C132.49 68.7176 133.504 68.8724 134.505 68.9146C136.215 68.9861 137.934 69.0001 139.645 68.9287C142.751 68.7999 145.691 69.5056 148.595 70.5004C153.472 72.1706 158.178 74.2327 162.68 76.732C167.052 79.1589 171.272 81.8271 174.959 85.2552C176.318 86.5184 177.757 87.7015 179.055 89.0242C182.847 92.8885 185.884 97.3157 188.406 102.088C189.322 103.82 190.044 105.656 190.821 107.458C190.989 107.848 191.058 108.294 191.096 108.721C191.173 109.56 190.771 110.163 189.961 110.4C189.534 110.526 189.076 110.598 188.632 110.602C186.124 110.622 183.604 110.773 181.112 110.577C178.098 110.34 175.096 109.873 172.11 109.376C166.229 108.397 160.524 106.742 155.126 104.217C150.946 102.264 146.888 100.039 143.283 97.1003C141.076 95.3013 138.859 93.5142 136.679 91.6838C135.069 90.3329 134.277 88.536 133.97 86.4772C133.454 83.021 132.267 79.7661 130.787 76.6249C130.036 75.0315 129.122 73.5128 128.242 71.9844C127.819 71.2505 127.075 70.8738 126.319 70.5567C125.891 70.3781 125.604 70.6238 125.587 71.0081C125.553 71.7181 125.504 72.4639 125.679 73.1383C125.898 73.9837 126.286 74.7966 126.686 75.5814C128.835 79.7997 130.257 84.2442 130.894 88.9355C130.984 89.5958 131.051 90.2636 131.058 90.9293C131.085 93.4547 131.089 95.98 131.085 98.5053C131.084 98.9903 131.049 99.4817 130.96 99.9569C130.748 101.103 129.934 101.61 128.848 101.174C128.09 100.868 127.34 100.454 126.704 99.9428C122.495 96.5559 118.844 92.6742 116.253 87.8801C116.082 87.5629 115.913 87.2436 115.736 86.9297C114.639 84.9932 113.954 82.969 114.178 80.6862C114.282 79.6319 114.195 78.5592 114.195 77.4951C114.212 74.5022 114.338 71.4973 113.637 68.5531C113.202 66.7302 112.83 64.8728 112.184 63.1225C111.159 60.3449 111.49 57.6713 112.5 55.041C114.463 49.9297 117.636 45.6962 121.903 42.2476C124.404 40.2277 127.108 38.5608 129.969 37.1276C130.352 36.9349 130.765 36.7726 131.183 36.6838C132.192 36.4706 132.877 36.9035 132.99 37.9297C133.088 38.8162 133.104 39.7363 132.986 40.6196C132.407 44.9861 131.347 49.2326 129.467 53.2344C128.206 55.9188 126.649 58.4312 124.829 60.7801C124.422 61.304 124.052 61.8668 123.74 62.4524C123.486 62.9298 123.3 63.5035 123.66 63.9927Z" fill="#FAB8D4"/>
<path d="M99.947 92.9567C99.7533 93.499 99.3863 93.5066 98.936 93.1223C97.9456 92.277 97.4 91.1859 97.0991 89.9475C96.4377 87.2165 95.6508 83.7895 95.7894 79.9155C95.6227 74.8301 96.9118 70.1334 98.8884 65.5883C99.356 64.5145 99.8377 63.445 100.37 62.4026C100.678 61.8019 101.167 61.3256 101.834 61.1037C102.705 60.8125 103.309 61.1578 103.334 62.0692C103.352 62.7544 103.27 63.4851 103.038 64.1248C102.346 66.0396 101.474 67.8928 100.826 69.8206C99.8095 72.8428 99.2077 75.9548 99.2564 79.1642C99.2597 79.4316 99.2802 79.713 99.3733 79.9577C99.4404 80.133 99.6277 80.3538 99.7879 80.3777C99.9438 80.4004 100.217 80.2413 100.292 80.0887C100.533 79.6091 100.75 79.109 100.893 78.5927C101.147 77.6726 101.305 76.7255 101.569 75.8087C101.83 74.8951 102.231 74.0183 102.458 73.0982C102.633 72.3925 102.638 71.6456 102.707 70.915C102.742 70.5577 102.7 70.1843 102.788 69.8423C102.839 69.642 103.079 69.4894 103.233 69.3151C103.406 69.4937 103.704 69.6561 103.73 69.8542C103.833 70.6378 103.848 71.4334 103.902 72.2236C103.914 72.4011 103.901 72.6133 103.992 72.7475C104.637 73.7098 104.682 74.7728 104.57 75.8704C104.25 79.0192 103.778 82.1355 102.515 85.0722C102.173 85.8656 101.768 86.6331 101.38 87.407C100.854 88.4548 100.619 89.5622 100.523 90.7323C100.461 91.4857 100.204 92.2358 99.947 92.9567Z" fill="black"/>
<path d="M93.2478 150.048C93.7425 149.56 94.1105 149.687 94.2761 150.356C94.3151 150.513 94.3454 150.674 94.3616 150.834C94.3822 151.05 94.3854 151.266 94.3952 151.483C94.1581 153.646 93.6851 155.763 92.8678 157.773C91.4185 161.339 89.3975 164.573 86.948 167.545C85.2388 169.618 83.5729 171.725 81.8778 173.81C80.3656 175.671 78.8113 177.498 77.324 179.379C74.6406 182.773 72.4216 186.437 71.2147 190.625C70.7514 192.231 70.5035 193.899 70.155 195.538C70.077 195.907 70.0272 196.29 69.8941 196.64C69.6744 197.221 69.2554 197.325 68.8073 196.895C68.4858 196.588 68.1719 196.237 67.9695 195.848C65.7808 191.622 64.9701 187.12 65.6 182.421C65.9908 179.506 67.464 176.988 69.0866 174.574C70.1225 173.032 71.4561 171.837 73.0613 170.899C74.383 170.128 75.6787 169.301 76.9289 168.416C80.7315 165.728 84.1466 162.623 87.0692 158.973C89.0598 156.487 90.8177 153.855 92.4251 151.113C92.6503 150.728 92.9306 150.36 93.2478 150.048Z" fill="#FAB8D4"/>
<path d="M86.2606 197.826C86.0366 198.482 85.5365 198.612 85.0819 198.101C84.7636 197.744 84.4757 197.331 84.2809 196.894C83.0079 194.03 82.0738 191.06 81.6267 187.952C81.4654 186.831 81.3972 185.698 81.2933 184.637C81.3929 183.497 81.4568 182.436 81.5834 181.382C81.7837 179.717 82.5468 178.324 83.626 177.048C85.7216 174.571 87.7522 172.042 89.8219 169.542C90.3382 168.919 90.8675 168.3 91.4423 167.731C92.2866 166.898 93.0432 167.104 93.2078 168.282C93.355 169.341 93.3766 170.445 93.2619 171.508C92.686 176.825 91.2106 181.892 88.8845 186.713C87.7187 189.128 87.2175 191.734 86.8203 194.362C86.6936 195.199 86.5984 196.042 86.4739 196.879C86.4273 197.2 86.3646 197.522 86.2606 197.826Z" fill="#FAB8D4"/>
<path d="M78.4401 115.174C78.9239 114.428 79.4186 114.21 80.1882 114.956C80.763 115.515 81.0422 116.23 81.0617 116.999C81.1061 118.692 81.0758 120.386 81.0758 122.078C81.1721 124.367 81.2522 126.652 80.8193 128.926C80.1352 132.523 78.7908 135.836 76.7893 138.889C75.7112 140.531 74.6721 142.211 73.1826 143.531C72.728 143.935 72.2452 144.338 71.7094 144.614C70.2968 145.342 69.1051 144.632 69.052 143.043C69.0282 142.327 69.1051 141.604 69.1635 140.886C69.3345 138.817 69.1375 136.785 68.6623 134.768C67.857 131.345 67.0506 127.923 66.2918 124.49C65.5233 121.016 65.6218 117.543 66.4596 114.088C67.0722 111.558 68.3419 109.354 69.7231 107.179C71.796 103.915 74.6223 101.431 77.6942 99.1859C79.1177 98.1457 80.684 97.4248 82.5209 97.624C82.759 97.6489 83.0967 97.743 83.1876 97.913C83.3576 98.2301 83.1065 98.4758 82.8164 98.6447C82.693 98.7161 82.5522 98.7941 82.4786 98.9077C81.6538 100.175 80.3527 100.893 79.1815 101.752C74.9448 104.862 71.9541 108.918 70.1085 113.808C69.0423 116.634 68.8518 119.592 69.4374 122.549C70.0067 125.43 70.7266 128.281 71.3782 131.146C71.6553 132.358 71.8999 133.581 72.216 134.783C72.3448 135.278 72.5559 135.78 72.8482 136.196C73.2021 136.698 73.6892 136.724 74.0843 136.256C74.5801 135.671 75.0304 135.03 75.4038 134.359C76.8857 131.693 77.5113 128.778 77.8166 125.774C77.9097 124.86 78.1424 123.949 78.1381 123.038C78.1316 121.548 77.9649 120.061 77.901 118.57C77.8707 117.854 77.8674 117.127 77.9562 116.418C78.0103 115.988 78.2008 115.541 78.4401 115.174Z" fill="black"/>
<path d="M67.9695 195.847C68.1719 196.237 68.4858 196.588 68.8073 196.895C69.2555 197.325 69.6744 197.221 69.8941 196.64C70.0272 196.29 70.077 195.907 70.155 195.538C70.5035 193.899 70.7514 192.231 71.2147 190.625C72.4216 186.437 74.6406 182.773 77.324 179.379C78.8113 177.498 80.3657 175.671 81.8778 173.81C83.5729 171.725 85.2388 169.618 86.948 167.545C89.3976 164.572 91.4185 161.339 92.8679 157.773C93.6851 155.762 94.1581 153.646 94.3952 151.482C94.3854 151.266 94.3822 151.049 94.3616 150.834C94.3454 150.674 94.3151 150.513 94.2761 150.356C94.1105 149.687 93.7425 149.56 93.2478 150.048C92.9306 150.36 92.6503 150.728 92.4251 151.113C90.8177 153.855 89.0598 156.487 87.0692 158.973C84.1466 162.623 80.7315 165.727 76.9289 168.416C75.6787 169.301 74.383 170.128 73.0613 170.899C71.4561 171.837 70.1225 173.032 69.0866 174.574C67.464 176.988 65.9908 179.506 65.6001 182.421C64.9701 187.12 65.7808 191.622 67.9695 195.847ZM176.472 81.995C177.709 83.0147 178.926 84.0668 180.058 85.2001C181.188 86.3335 182.156 87.6291 183.278 88.7733C184.584 90.1058 185.772 91.5184 186.8 93.076C188.283 95.3231 189.961 97.4231 191.84 99.3498C193.771 101.329 195.569 103.408 197.177 105.659C198.23 107.134 199.39 107.359 201.299 106.667C203.87 105.734 206.116 104.274 208.019 102.334C210.316 99.9917 212.192 97.3116 213.789 94.4572C215.529 91.3452 216.76 88.0037 217.787 84.5994C218.175 83.3167 218.4 81.9669 218.534 80.6311C218.641 79.5617 217.988 79.1644 216.963 79.5292C216.524 79.6862 216.105 79.9048 215.682 80.1062C212.285 81.7201 208.737 82.1563 205.088 81.2763C203.645 80.9288 202.23 80.3659 200.888 79.723C198.63 78.6405 196.462 77.3708 194.215 76.2657C191.695 75.0263 189.266 73.579 186.514 72.8495C184.591 72.3396 182.68 71.8276 180.657 72.0809C179.998 72.1643 179.315 72.2444 178.664 72.1599C177.986 72.0712 177.271 71.8893 176.682 71.5549C175.926 71.1251 175.761 71.0732 175.367 71.8774C175.188 72.2444 175.056 72.6557 175.004 73.0595C174.797 74.6864 174.63 76.3176 174.448 77.9478C174.344 79.697 175.185 80.9321 176.472 81.995ZM175.684 69.3781C175.889 70.0827 176.215 70.1628 176.853 69.8305C178.688 68.8737 180.646 68.4472 182.703 68.602C184.939 68.7719 187.13 69.2081 189.246 69.9767C189.72 70.1488 190.198 70.3187 190.686 70.4443C192.002 70.782 193.013 70.4086 193.799 69.2926C194.11 68.852 194.399 68.3909 194.65 67.9135C195.789 65.7465 196.537 63.4311 197.173 61.0779C197.276 60.698 197.326 60.2964 197.34 59.9035C197.386 58.5959 196.786 58.1066 195.513 58.4551C194.715 58.6738 193.952 59.0115 193.159 59.254C189.258 60.4436 185.293 61.2284 180.715 61.04C180.122 61.04 179.058 61.0324 177.994 61.0411C176.613 61.0519 175.972 61.5498 175.793 62.9007C175.595 64.3815 175.445 65.8742 175.376 67.3658C175.345 68.0326 175.496 68.7297 175.684 69.3781ZM170.583 41.1058C170.64 42.2694 170.921 43.827 171.481 45.324C171.618 45.6888 171.826 46.0417 172.064 46.3502C172.492 46.9044 172.992 46.8427 173.246 46.1835C173.464 45.6163 173.655 45.0155 173.718 44.4137C173.942 42.264 174.113 40.1077 174.285 37.9526C174.313 37.5986 174.276 37.2284 174.209 36.8777C173.997 35.7661 173.364 35.5463 172.488 36.2597C172.405 36.3279 172.326 36.4015 172.248 36.4772C171.062 37.6257 170.557 39.0448 170.583 41.1058ZM161.181 53.438C161.765 56.642 162.857 59.6751 164.292 62.5771C165.104 64.2192 166.027 65.8222 167.054 67.3387C167.92 68.616 169.01 69.7418 169.997 70.9368C170.483 71.5256 170.707 71.5159 171.134 70.8816C171.714 70.021 171.81 69.0339 171.885 68.0413C172.053 65.8125 172.208 63.5827 172.385 61.3539C172.559 59.1804 172.754 57.0079 172.94 54.8344C172.934 53.4943 172.728 52.9791 171.795 52.0222C171.393 51.6098 170.986 51.1984 170.611 50.7611C169.438 49.3875 168.807 47.739 168.243 46.0558C168.094 45.6141 167.918 45.1714 167.682 44.7709C167.271 44.0727 166.634 43.9342 165.989 44.431C165.537 44.7796 165.13 45.2039 164.768 45.6477C163.937 46.6684 163.2 47.7704 162.326 48.751C161.096 50.1333 160.861 51.6845 161.181 53.438ZM151.07 67.9298C152.453 68.4515 153.846 68.9505 155.226 69.4809C159.784 71.2355 164.112 73.4567 168.315 75.9333C168.698 76.1596 169.124 76.336 169.552 76.4562C170.093 76.6077 170.537 76.3988 170.869 75.9388C171.552 74.9916 171.308 72.7953 170.501 72.1415C169.926 72.6719 169.273 72.7077 168.567 72.5236C167.752 72.3115 167.083 71.8623 166.512 71.2734C163.012 67.6624 160.463 63.4863 159.035 58.6457C158.843 57.9897 158.637 57.3294 158.349 56.7124C157.958 55.8757 157.273 55.7101 156.535 56.2751C156.082 56.6226 155.68 57.0523 155.318 57.4972C153.819 59.3449 152.34 61.21 150.86 63.0728C150.344 63.7223 149.803 64.3566 149.349 65.0472C148.657 66.0983 148.904 66.9155 150.026 67.4838C150.363 67.6537 150.716 67.7966 151.07 67.9298ZM112.5 55.0411C111.49 57.6715 111.159 60.3451 112.184 63.1226C112.83 64.8729 113.202 66.7304 113.637 68.5532C114.338 71.4975 114.211 74.5024 114.195 77.4953C114.195 78.5593 114.282 79.632 114.178 80.6863C113.954 82.9692 114.639 84.9934 115.736 86.9299C115.913 87.2438 116.082 87.5631 116.253 87.8803C118.844 92.6744 122.495 96.556 126.704 99.943C127.34 100.454 128.089 100.868 128.848 101.174C129.934 101.61 130.748 101.103 130.96 99.9571C131.049 99.4819 131.083 98.9904 131.085 98.5055C131.089 95.9802 131.085 93.4548 131.058 90.9295C131.051 90.2638 130.984 89.5959 130.894 88.9356C130.257 84.2443 128.835 79.7998 126.686 75.5815C126.286 74.7968 125.898 73.9839 125.679 73.1385C125.503 72.4641 125.553 71.7183 125.587 71.0082C125.604 70.624 125.891 70.3782 126.319 70.5569C127.075 70.874 127.819 71.2507 128.242 71.9846C129.122 73.513 130.036 75.0317 130.787 76.625C132.267 79.7663 133.454 83.0212 133.97 86.4774C134.277 88.5362 135.069 90.3331 136.679 91.684C138.859 93.5144 141.076 95.3015 143.283 97.1005C146.888 100.039 150.946 102.264 155.126 104.218C160.524 106.742 166.229 108.397 172.11 109.376C175.096 109.873 178.098 110.34 181.112 110.577C183.604 110.773 186.124 110.622 188.632 110.602C189.076 110.599 189.534 110.526 189.961 110.4C190.77 110.163 191.173 109.561 191.096 108.722C191.058 108.294 190.989 107.848 190.821 107.458C190.044 105.656 189.322 103.82 188.406 102.088C185.884 97.3159 182.847 92.8887 179.055 89.0244C177.757 87.7017 176.318 86.5186 174.959 85.2553C171.272 81.8272 167.052 79.159 162.68 76.7322C158.178 74.2328 153.472 72.1708 148.595 70.5006C145.691 69.5058 142.751 68.8 139.645 68.9289C137.934 69.0003 136.215 68.9862 134.505 68.9148C133.504 68.8726 132.49 68.7178 131.522 68.4612C130.961 68.3129 130.45 67.9027 129.974 67.5347C129.658 67.29 129.693 66.9101 130.019 66.6492C130.676 66.1253 131.388 65.7053 132.261 65.6718C135.307 65.5549 138.36 65.3947 141.388 65.8352C143.191 66.0972 144.57 65.5257 145.665 64.1304C145.799 63.9594 145.941 63.7959 146.075 63.6271C149.575 59.2204 153.073 54.816 156.57 50.4083C157.669 49.0238 158.6 47.5647 158.809 45.7429C159.193 42.3928 158.784 39.1465 157.485 36.0399C156.973 34.8157 156.36 33.6163 155.65 32.4949C154.851 31.2306 153.789 31.2858 152.947 32.5133C152.875 32.6172 152.815 32.7276 152.745 32.8337C152.154 33.7397 151.574 34.6533 150.967 35.5485C149.457 37.7783 147.426 39.534 145.56 41.4381C144.689 42.3257 143.823 43.2295 142.868 44.0208C140.368 46.0893 137.823 48.1048 135.287 50.1301C134.58 50.6951 134.05 51.389 133.673 52.2008C133.407 52.7734 133.162 53.3558 132.921 53.9392C131.508 57.3662 129.468 60.3905 126.907 63.0501C126.421 63.5545 125.695 63.8814 125.021 64.1293C124.618 64.2776 124.014 64.4746 123.66 63.9929C123.3 63.5037 123.486 62.93 123.74 62.4526C124.052 61.867 124.422 61.3041 124.829 60.7802C126.649 58.4313 128.206 55.919 129.467 53.2345C131.347 49.2327 132.407 44.9863 132.986 40.6197C133.104 39.7365 133.088 38.8164 132.99 37.9299C132.877 36.9037 132.192 36.4707 131.183 36.684C130.765 36.7727 130.352 36.9351 129.969 37.1278C127.108 38.5609 124.404 40.2279 121.903 42.2477C117.636 45.6964 114.463 49.9298 112.5 55.0411ZM81.6267 187.953C82.0737 191.061 83.0079 194.031 84.2808 196.895C84.4757 197.331 84.7636 197.745 85.0819 198.102C85.5365 198.613 86.0366 198.483 86.2606 197.827C86.3646 197.523 86.4273 197.2 86.4739 196.88C86.5984 196.042 86.6936 195.2 86.8203 194.362C87.2175 191.735 87.7187 189.129 88.8845 186.714C91.2106 181.893 92.686 176.826 93.2619 171.509C93.3766 170.446 93.355 169.342 93.2077 168.283C93.0432 167.104 92.2866 166.899 91.4423 167.732C90.8675 168.3 90.3382 168.919 89.8219 169.543C87.7522 172.042 85.7216 174.572 83.626 177.049C82.5468 178.325 81.7837 179.718 81.5834 181.383C81.4568 182.437 81.3929 183.498 81.2933 184.638C81.3972 185.698 81.4654 186.832 81.6267 187.953ZM49.9306 159.743C49.9328 160.011 50.1644 160.368 50.3972 160.51C50.5303 160.591 50.9178 160.365 51.1191 160.193C51.4027 159.95 51.6474 159.648 51.8595 159.338C52.5133 158.386 53.1498 157.424 53.7809 156.457C55.4965 153.831 57.3064 151.261 58.4927 148.327C60.0634 144.441 61.4532 140.518 61.0614 136.217C61.0614 135.387 61.0257 134.555 61.0722 133.728C61.1123 133.013 61.1956 132.291 61.3526 131.593C61.4727 131.059 61.7747 130.533 62.3798 130.457C62.9416 130.387 63.2706 130.856 63.5759 131.259C64.2178 132.105 64.3412 133.107 64.4061 134.124C64.5804 136.877 64.3109 139.607 63.8757 142.314C63.3572 145.537 62.382 148.62 60.899 151.547C60.4173 152.498 59.9508 153.569 59.9064 154.604C59.7863 157.372 59.8101 160.155 59.9465 162.923C60.059 165.205 60.4195 167.473 60.6576 169.749C60.7615 170.733 60.7572 171.734 60.9445 172.699C61.1047 173.529 61.7596 173.658 62.4004 173.09C63.0996 172.471 63.5662 171.679 63.7816 170.804C64.194 169.126 64.6508 167.435 64.8034 165.724C65.0047 163.468 64.9593 161.188 64.9636 158.918C64.9647 157.875 64.8283 156.834 64.7612 155.791C64.7135 155.072 64.6334 154.352 64.6475 153.633C64.6616 152.924 64.825 152.234 65.363 151.702C65.7419 151.329 66.1521 151.259 66.5007 151.646C66.925 152.118 67.3839 152.638 67.5734 153.221C67.8894 154.191 68.1406 155.221 68.1763 156.234C68.2888 159.385 68.2899 162.541 68.3278 165.694C68.3332 166.234 68.2791 166.776 68.2997 167.315C68.3408 168.369 69.0476 168.845 70.0305 168.5C70.3011 168.404 70.5652 168.28 70.8196 168.146C74.1124 166.408 77.0371 164.144 79.8169 161.702C83.9226 158.094 87.0194 153.695 89.4874 148.851C91.2399 145.411 92.4176 141.766 93.2738 137.998C94.2599 133.655 94.9104 129.264 94.9808 124.826C95.0263 121.918 94.7665 118.988 94.4233 116.092C93.7955 110.779 92.3418 105.672 90.2159 100.752C88.2263 96.1501 86.6817 91.422 86.1827 86.3854C85.9272 83.8092 85.7811 81.2471 86.0582 78.6708C86.2476 76.914 86.4566 75.1594 86.673 73.4058C86.9177 71.4228 86.383 70.5969 84.519 69.9139C81.8497 68.9354 79.0873 68.9538 76.339 69.2298C72.4714 69.6173 69.0725 71.32 65.9205 73.4762C60.9986 76.8415 57.5478 81.4571 55.0105 86.7924C54.7875 87.2622 54.7139 87.8283 54.6836 88.3565C54.6555 88.8242 54.9965 89.0515 55.4489 88.9183C55.8061 88.8122 56.1482 88.6336 56.474 88.4464C58.3488 87.3683 60.1824 86.2133 62.0951 85.2088C64.5328 83.9293 67.1036 82.9746 69.8595 82.6315C70.7189 82.5243 71.5957 82.4973 72.4043 82.9075C73.3493 83.387 73.4846 84.2941 72.6587 84.9403C72.217 85.2867 71.6747 85.5465 71.1378 85.7208C69.5088 86.2501 67.857 86.7069 66.2225 87.2167C64.9463 87.614 63.9093 88.3836 63.0606 89.4022C62.5757 89.9835 62.1016 90.5766 61.6589 91.1904C58.4213 95.6803 56.12 100.637 54.4195 105.883C53.3923 109.052 52.6259 112.3 52.4332 115.618C52.1269 120.9 52.457 126.177 53.0524 131.435C53.1476 132.276 53.2223 133.123 53.2418 133.969C53.3024 136.62 53.2938 139.27 52.9019 141.904C52.5967 143.953 52.3889 146.019 52.0024 148.052C51.4244 151.099 50.7035 154.119 50.0995 157.161C49.9328 158.002 49.9241 158.882 49.9306 159.743ZM49.8365 172.636C49.3071 173.513 48.2734 173.604 47.5871 172.842C47.191 172.401 46.8229 171.85 46.6692 171.286C45.8206 168.165 45.5597 165.022 45.8877 161.76C46.3791 156.871 47.572 152.136 48.6057 147.364C49.1729 144.744 49.3862 142.089 49.6903 139.439C49.9707 137.003 49.8624 134.591 49.6016 132.158C49.0961 127.458 48.9294 122.74 48.938 118.01C48.9467 112.56 50.0952 107.35 51.8595 102.236C52.1507 101.392 52.3683 100.51 52.4971 99.628C52.5924 98.9699 52.3629 98.8346 51.6799 98.7967C51.1451 98.7664 50.5671 98.8021 50.0865 98.6116C48.9662 98.1689 48.5603 97.1579 48.6382 96.0614C48.7313 94.7559 48.9359 93.4418 49.2563 92.1732C50.1449 88.6564 51.5359 85.3463 53.454 82.2483C55.3353 79.211 57.525 76.4215 60.0352 73.8951C63.9851 69.9171 68.7132 67.2771 74.2087 66.1362C77.8641 65.3784 81.5239 65.4726 85.1187 66.6059C85.2897 66.6611 85.464 66.7109 85.6393 66.7521C87.2251 67.1244 88.0196 66.7791 88.6821 65.2886C89.3694 63.7407 89.9204 62.13 90.6261 60.5919C92.2476 57.0599 94.0856 53.6459 96.5244 50.5955C97.3448 49.5683 98.2324 48.5952 99.0952 47.6015C99.237 47.4391 99.4015 47.2952 99.5617 47.1501C100.841 45.9908 102.222 45.9367 103.391 47.1956C104.477 48.3657 105.406 49.6852 106.385 50.9527C106.782 51.4658 107.097 52.0428 107.507 52.5428C108.319 53.5311 109.106 53.5138 109.809 52.4454C110.312 51.6801 110.702 50.8391 111.128 50.024C112.288 47.8007 113.765 45.8057 115.509 44.0099C116.816 42.6645 118.106 41.2941 119.511 40.0558C122.093 37.7772 124.992 35.9512 128.071 34.4141C129.136 33.8826 130.205 33.3544 131.29 32.8694C132.014 32.5469 132.765 32.2968 133.595 32.417C134.273 32.5144 134.855 32.8088 135.094 33.428C135.447 34.3437 135.841 35.3006 135.898 36.2597C136.011 38.1247 135.901 40.0038 135.886 41.8765C135.883 42.2899 135.841 42.7121 135.904 43.1169C136.054 44.0803 136.758 44.4483 137.601 43.9602C138.299 43.5564 138.971 43.0845 139.577 42.5541C141.11 41.2129 142.696 39.9129 144.081 38.43C145.947 36.4318 147.931 34.5007 149.269 32.0738C149.882 30.9589 150.338 29.7563 150.861 28.5916C151.118 28.0169 151.308 27.4042 151.633 26.8716C152.154 26.0154 153.052 25.7665 153.991 26.1237C154.877 26.4603 155.559 27.0751 156.174 27.7668C159.202 31.17 161.114 35.1036 161.818 39.6163C161.887 40.0579 162.013 40.4985 162.171 40.9174C162.389 41.4954 162.786 41.6437 163.337 41.3742C163.558 41.266 163.778 41.1101 163.935 40.9228C165.331 39.2483 166.709 37.5575 168.1 35.8786C170.261 33.2689 172.423 30.658 174.603 28.0623C174.901 27.7084 175.27 27.3945 175.658 27.1433C176.613 26.5296 177.531 26.837 177.914 27.8989C178.064 28.3156 178.168 28.7789 178.159 29.2184C178.12 31.0185 178.064 32.8197 177.95 34.6165C177.769 37.459 177.545 40.2982 177.324 43.1375C177.091 46.138 176.837 49.1375 176.599 52.138C176.511 53.2529 176.426 54.3678 176.371 55.4838C176.312 56.6994 176.834 57.508 178.066 57.7764C179.109 58.0038 180.22 58.1586 181.274 58.0601C184.509 57.7591 187.719 57.2569 190.839 56.3032C193.401 55.5196 195.861 54.501 198.132 53.057C198.54 52.7972 198.971 52.5472 199.425 52.3881C200.539 51.9984 201.523 52.5028 201.701 53.6642C201.841 54.5757 201.864 55.5445 201.717 56.4526C201.166 59.8396 200.389 63.1833 199.116 66.3786C198.53 67.8486 197.736 69.2341 197.038 70.6597C196.919 70.9022 196.791 71.1414 196.691 71.3914C196.259 72.4793 196.472 73.2987 197.48 73.9059C199.97 75.4029 202.486 76.8426 205.285 77.7248C209.772 79.1385 214.783 77.5819 217.645 73.8399C218.093 73.2543 218.553 72.6665 219.083 72.1578C220.155 71.1273 221.604 71.3936 222.171 72.7661C222.452 73.447 222.592 74.2263 222.62 74.9667C222.75 78.3115 222.206 81.5718 221.351 84.8007C220.174 89.242 218.48 93.4581 216.106 97.3939C214.883 99.4202 213.409 101.257 211.893 103.079C210.254 105.048 208.37 106.691 206.226 108.047C205.347 108.603 204.381 109.021 203.446 109.486C203.011 109.701 202.537 109.843 202.111 110.075C201.402 110.461 201.129 111.066 201.329 111.849C201.456 112.352 201.646 112.847 201.864 113.32C203.84 117.59 205.243 122.04 205.795 126.714C206.126 129.521 206.352 132.355 206.378 135.178C206.398 137.438 206.951 139.416 208.196 141.281C210.319 144.466 212.194 147.8 213.816 151.27C215.803 155.525 217.288 159.945 217.945 164.609C218.103 165.728 218.11 166.876 218.108 168.009C218.103 170.335 218.216 172.679 217.975 174.983C217.321 181.277 215.235 187.062 211.352 192.126C207.963 196.547 203.614 199.64 198.34 201.424C194.68 202.661 190.932 203.368 187.055 203.542C184.429 203.662 181.814 204.047 179.175 203.933C176.421 203.814 173.669 203.643 170.914 203.544C166.67 203.391 162.48 202.746 158.272 202.253C157.67 202.182 157.047 202.196 156.444 202.267C155.8 202.345 155.366 202.772 155.201 203.401C155.089 203.834 155.001 204.286 155 204.731C154.992 208.916 154.947 213.103 155.037 217.285C155.089 219.714 155.345 222.14 155.552 224.564C155.683 226.094 156.321 227.437 157.44 228.479C159.683 230.566 161.84 232.753 164.349 234.537C165.672 235.478 167.013 236.396 168.3 237.383C168.819 237.781 169.296 238.287 169.648 238.837C170.154 239.629 169.756 240.339 168.808 240.447C167.714 240.573 166.675 240.513 165.741 239.771C163.399 237.908 161.021 236.09 158.659 234.254C158.359 234.022 158.068 233.779 157.766 233.552C156.922 232.919 155.993 232.734 155.013 233.143C154.581 233.323 154.3 233.199 153.989 232.938C153.149 232.235 152.752 231.299 152.64 230.249C152.431 228.295 152.259 226.337 152.097 224.378C151.968 222.816 151.854 221.252 151.772 219.687C151.698 218.265 151.655 216.841 151.631 215.417C151.608 214.011 151.626 212.604 151.626 211.196H151.562C151.562 208.96 151.567 206.723 151.558 204.486C151.556 204.037 151.521 203.586 151.464 203.14C151.325 202.071 150.71 201.382 149.672 201.15C148.582 200.908 147.474 200.75 146.374 200.553C144.99 200.304 143.602 200.068 142.222 199.797C141.237 199.605 140.454 199.072 139.949 198.198C139.849 198.027 139.822 197.659 139.931 197.547C140.452 197.012 141.052 196.561 141.855 196.581C142.341 196.593 142.828 196.635 143.308 196.705C148.146 197.399 152.975 198.166 157.823 198.78C162.025 199.312 166.241 199.802 170.466 200.072C174.437 200.327 178.409 200.805 182.402 200.554C187.562 200.229 192.692 199.674 197.606 197.956C203.983 195.726 208.489 191.397 211.416 185.361C213.305 181.466 214.394 177.344 214.704 173.041C215.126 167.186 214.376 161.49 212.14 156.019C210.312 151.548 208.025 147.313 205.56 143.173C203.863 140.321 203.082 137.305 203.003 133.974C202.827 126.571 201.241 119.489 197.536 112.984C197.299 112.569 196.98 112.183 196.641 111.843C196.252 111.454 195.594 111.414 195.27 111.812C193.904 113.496 191.993 113.885 190.024 113.93C186.455 114.014 182.874 114.113 179.315 113.909C175.354 113.68 171.441 112.934 167.572 112.033C163.135 110.999 158.801 109.61 154.627 107.804C152.12 106.718 149.756 105.302 147.339 104.013C144.779 102.649 142.537 100.819 140.23 99.089C139.483 98.5283 138.84 97.829 138.113 97.2401C137.555 96.7888 136.965 96.3612 136.34 96.0148C135.559 95.5829 134.855 95.8968 134.708 96.7682C134.521 97.8669 134.459 98.9872 134.332 100.097C134.226 101.029 134.106 101.959 133.991 102.889C133.984 102.944 133.98 102.997 133.971 103.051C133.629 105.384 132.146 106.33 129.906 105.58C127.724 104.849 125.814 103.608 124.034 102.181C121.175 99.8921 118.716 97.2109 116.504 94.2991C115.697 93.2373 114.922 92.1494 114.125 91.08C113.974 90.8786 113.801 90.6903 113.614 90.5236C113.028 90.0051 112.37 89.9878 111.829 90.5474C111.432 90.9587 111.122 91.4545 110.778 91.9156C110.185 92.709 109.646 93.549 108.983 94.2786C108.655 94.638 108.125 94.8685 107.644 95.0222C107.088 95.1997 106.757 94.9378 106.612 94.3706C106.409 93.5793 106.55 92.827 106.902 92.1105C107.457 90.9771 108.086 89.8763 108.581 88.717C109.95 85.5043 110.813 82.1628 110.831 78.6459C110.846 75.7082 110.924 72.7694 110.334 69.8576C109.305 64.7777 107.614 59.9511 104.994 55.4665C104.348 54.3613 103.685 53.2659 103.011 52.1781C102.843 51.9053 102.619 51.6596 102.39 51.4312C101.588 50.6302 100.77 50.6053 100.005 51.4604C99.3365 52.2105 98.7347 53.0289 98.1697 53.8623C94.1008 59.8602 91.4455 66.4501 90.152 73.5671C89.5426 76.9184 89.088 80.3151 89.3207 83.7356C89.5523 87.1409 89.9712 90.5301 91.2193 93.7471C92.3201 96.5863 93.4773 99.405 94.5835 102.243C96.3901 106.877 97.4098 111.692 98.0008 116.626C98.3364 119.432 98.4002 122.234 98.4056 125.047C98.4132 128.249 98.0722 131.424 97.5743 134.575C97.2431 136.67 97.2334 138.712 97.6371 140.802C98.0095 142.728 98.2822 144.692 98.3504 146.648C98.4121 148.439 98.1448 150.24 98.016 152.037C97.8752 153.982 97.3394 155.841 96.6402 157.642C95.9106 159.521 95.7742 161.376 96.3945 163.298C96.5471 163.775 96.6261 164.286 96.6618 164.786C96.9508 168.742 96.8058 172.673 96.0654 176.584C95.5556 179.276 94.7058 181.854 93.6873 184.385C93.1363 185.754 93.0183 187.155 93.1623 188.631C93.4838 191.894 93.9243 195.151 93.8637 198.444C93.8561 198.875 93.8821 199.313 93.9492 199.739C94.4623 203.02 94.274 206.327 94.3021 209.624C94.3313 212.997 94.2426 216.372 94.3324 219.741C94.4028 222.392 93.4048 224.509 91.7941 226.553C89.2839 229.734 86.4111 232.53 83.3088 235.095C81.0887 236.929 78.7355 238.604 76.4429 240.352C75.7696 240.865 74.239 240.897 73.4023 240.05C73.3265 239.973 73.3363 239.756 73.3796 239.629C73.6794 238.753 74.2098 238.033 74.9318 237.459C77.3586 235.527 79.8883 233.71 82.1863 231.637C84.6034 229.456 86.8636 227.088 89.0685 224.688C90.3934 223.247 90.8513 221.355 90.9054 219.421C90.9649 217.349 90.9249 215.273 90.9097 213.198C90.9011 211.858 90.3447 210.782 89.3434 209.883C84.5211 205.554 81.2175 200.265 79.5073 194.012C79.0278 192.259 78.7258 190.459 78.3393 188.681C78.2668 188.346 78.2105 188.005 78.1001 187.683C77.8436 186.934 77.1887 186.756 76.707 187.384C76.1528 188.106 75.6278 188.894 75.2944 189.734C73.5679 194.075 73.1187 198.529 74.3137 203.097C74.4999 203.81 74.6698 204.542 74.7207 205.273C74.7586 205.831 74.6796 206.432 74.4999 206.961C74.2358 207.742 73.4185 208.124 72.6522 207.808C72.0666 207.568 71.5091 207.194 71.0274 206.777C69.5531 205.498 68.4945 203.875 67.4478 202.252C65.0513 198.535 63.2165 194.576 62.3906 190.204C62.2001 189.198 62.0756 188.166 62.0605 187.145C62.0312 185.288 62.1092 183.431 62.1384 181.574C62.1644 179.879 61.7368 179.58 60.1197 180.142C59.1325 180.485 58.1572 180.883 57.1473 181.135C56.4783 181.302 55.7552 181.302 55.0592 181.285C54.6988 181.277 54.3145 181.123 53.992 180.944C53.1173 180.462 52.9203 179.665 53.4951 178.861C53.7939 178.441 54.1716 178.061 54.5711 177.733C56.3105 176.302 57.1678 174.458 57.2609 172.225C57.3865 169.198 57.0358 166.211 56.4783 163.244C56.3971 162.813 56.2153 162.376 55.9804 162.004C55.686 161.536 55.2985 161.51 54.886 161.875C54.6046 162.124 54.3275 162.399 54.124 162.711C52.5296 165.165 51.2977 167.774 50.6418 170.647C50.4848 171.338 50.2012 172.029 49.8365 172.636Z" fill="black"/>
<path d="M201.377 174.586C201.506 175.699 202.299 176.187 203.294 175.688C204.601 175.032 205.17 173.871 205.299 172.637C205.289 171.527 204.824 170.985 204.109 171.077C202.729 171.255 201.217 173.198 201.377 174.586ZM194.874 137.32C195.037 138.124 195.102 138.986 195.452 139.705C196.115 141.064 197.722 141.23 198.724 140.099C199.072 139.707 199.345 139.2 199.506 138.7C200.087 136.9 200.181 135.044 199.807 133.198C199.681 132.578 199.328 131.948 198.92 131.454C198.267 130.665 197.083 130.637 196.372 131.375C195.948 131.816 195.544 132.375 195.384 132.951C195.065 134.103 194.918 135.302 194.702 136.482C194.756 136.492 194.811 136.502 194.865 136.51C194.865 136.781 194.821 137.06 194.874 137.32ZM185.897 174.685C186.742 175.884 187.84 176.802 189.162 177.434C189.461 177.577 189.816 177.605 190.145 177.687C191.114 177.649 191.517 177.199 191.379 176.256C191.347 176.046 191.285 175.827 191.183 175.643C190.422 174.274 189.315 173.285 187.862 172.694C187.681 172.621 187.482 172.58 187.287 172.551C186.706 172.469 186.131 172.52 185.791 173.057C185.45 173.594 185.542 174.182 185.897 174.685ZM181.245 185.418C181.822 186.107 182.587 186.477 183.433 186.609C185.887 186.99 188.35 187.313 190.748 187.649C192.476 187.398 194.122 187.194 195.75 186.899C196.222 186.814 196.686 186.526 197.082 186.232C197.577 185.867 197.919 185.34 197.743 184.685C197.57 184.045 197 183.788 196.422 183.725C195.732 183.651 195.026 183.685 194.33 183.734C193.057 183.822 191.776 184.113 190.516 184.034C188.255 183.893 186.01 183.508 183.751 183.296C183.055 183.231 182.295 183.269 181.639 183.487C180.75 183.784 180.632 184.689 181.245 185.418ZM160.532 139.353C160.616 140.446 160.912 141.485 161.568 142.386C162.458 143.608 164.013 143.802 165.093 142.749C165.581 142.272 166.011 141.659 166.257 141.025C167.265 138.435 167.484 135.738 167.105 132.995C166.976 132.068 166.583 131.237 165.955 130.528C164.612 129.009 162.5 129.084 161.409 130.793C160.96 131.495 160.697 132.37 160.553 133.201C160.382 134.187 160.432 135.211 160.386 136.204C160.433 137.266 160.453 138.312 160.532 139.353ZM97.0992 89.947C97.4001 91.1853 97.9456 92.2764 98.9361 93.1218C99.3864 93.5061 99.7533 93.4985 99.9471 92.9562C100.204 92.2353 100.461 91.4851 100.523 90.7318C100.619 89.5616 100.854 88.4543 101.38 87.4065C101.768 86.6326 102.173 85.8651 102.515 85.0717C103.778 82.135 104.25 79.0187 104.57 75.8698C104.682 74.7722 104.637 73.7093 103.992 72.747C103.901 72.6128 103.914 72.4006 103.902 72.2231C103.848 71.4329 103.833 70.6373 103.73 69.8536C103.704 69.6555 103.407 69.4932 103.233 69.3146C103.079 69.4888 102.839 69.6414 102.788 69.8417C102.7 70.1838 102.742 70.5572 102.707 70.9144C102.638 71.6451 102.633 72.3919 102.458 73.0977C102.231 74.0178 101.831 74.8945 101.569 75.8081C101.306 76.725 101.147 77.6721 100.893 78.5922C100.75 79.1085 100.533 79.6086 100.292 80.0881C100.217 80.2407 99.9438 80.3998 99.788 80.3771C99.6278 80.3533 99.4405 80.1325 99.3734 79.9571C99.2803 79.7125 99.2597 79.4311 99.2565 79.1637C99.2078 75.9543 99.8096 72.8422 100.826 69.8201C101.474 67.8922 102.346 66.0391 103.039 64.1242C103.27 63.4845 103.352 62.7539 103.334 62.0687C103.309 61.1573 102.705 60.812 101.834 61.1031C101.167 61.325 100.678 61.8013 100.37 62.4021C99.8377 63.4445 99.3561 64.5139 98.8884 65.5877C96.9119 70.1329 95.6227 74.8296 95.7894 79.9149C95.6509 83.789 96.4378 87.216 97.0992 89.947ZM47.5872 172.842C48.2734 173.604 49.3072 173.513 49.8365 172.635C50.2013 172.029 50.4849 171.337 50.6418 170.646C51.2978 167.774 52.5296 165.164 54.124 162.71C54.3275 162.398 54.6046 162.123 54.8861 161.874C55.2985 161.509 55.686 161.535 55.9804 162.003C56.2153 162.375 56.3972 162.813 56.4783 163.243C57.0358 166.21 57.3865 169.197 57.261 172.225C57.1679 174.458 56.3106 176.301 54.5711 177.732C54.1717 178.06 53.7939 178.44 53.4951 178.86C52.9204 179.664 53.1174 180.461 53.992 180.944C54.3145 181.122 54.6988 181.276 55.0593 181.285C55.7553 181.301 56.4783 181.301 57.1473 181.134C58.1572 180.882 59.1325 180.485 60.1197 180.142C61.7369 179.58 62.1644 179.878 62.1384 181.574C62.1092 183.43 62.0313 185.287 62.0605 187.144C62.0757 188.166 62.2001 189.197 62.3906 190.203C63.2165 194.575 65.0513 198.534 67.4478 202.251C68.4945 203.874 69.5532 205.498 71.0275 206.776C71.5091 207.193 72.0666 207.567 72.6522 207.808C73.4186 208.124 74.2358 207.742 74.4999 206.96C74.6796 206.431 74.7586 205.83 74.7207 205.273C74.6699 204.541 74.4999 203.809 74.3137 203.096C73.1187 198.528 73.5679 194.075 75.2944 189.733C75.6278 188.893 76.1528 188.105 76.707 187.383C77.1887 186.755 77.8436 186.933 78.1001 187.682C78.2105 188.004 78.2668 188.345 78.3394 188.68C78.7258 190.458 79.0278 192.258 79.5073 194.011C81.2176 200.264 84.5212 205.553 89.3435 209.883C90.3447 210.781 90.9011 211.857 90.9098 213.197C90.9249 215.272 90.965 217.348 90.9054 219.42C90.8513 221.354 90.3934 223.247 89.0685 224.687C86.8636 227.087 84.6035 229.455 82.1864 231.637C79.8883 233.709 77.3587 235.526 74.9318 237.458C74.2098 238.033 73.6794 238.753 73.3796 239.628C73.3363 239.755 73.3266 239.972 73.4023 240.049C74.2391 240.896 75.7696 240.864 76.4429 240.351C78.7355 238.603 81.0888 236.929 83.3089 235.094C86.4111 232.53 89.2839 229.734 91.7941 226.552C93.4048 224.509 94.4028 222.391 94.3324 219.741C94.2426 216.371 94.3314 212.996 94.3021 209.623C94.274 206.326 94.4623 203.019 93.9493 199.738C93.8821 199.313 93.8562 198.874 93.8637 198.443C93.9244 195.151 93.4838 191.894 93.1623 188.63C93.0184 187.155 93.1363 185.753 93.6873 184.385C94.7059 181.853 95.5556 179.276 96.0654 176.584C96.8058 172.673 96.9509 168.741 96.6619 164.785C96.6261 164.285 96.5471 163.774 96.3945 163.298C95.7743 161.375 95.9106 159.52 96.6402 157.641C97.3395 155.841 97.8753 153.981 98.016 152.036C98.1448 150.239 98.4122 148.438 98.3505 146.647C98.2823 144.692 98.0095 142.727 97.6371 140.801C97.2334 138.711 97.2431 136.67 97.5744 134.574C98.0723 131.423 98.4133 128.248 98.4057 125.046C98.4003 122.233 98.3364 119.432 98.0008 116.625C97.4098 111.691 96.3902 106.876 94.5836 102.242C93.4773 99.4043 92.3202 96.5856 91.2193 93.7464C89.9713 90.5294 89.5524 87.1402 89.3207 83.7349C89.088 80.3143 89.5426 76.9176 90.152 73.5664C91.4456 66.4493 94.1008 59.8594 98.1697 53.8616C98.7347 53.0281 99.3366 52.2098 100.006 51.4597C100.77 50.6045 101.588 50.6294 102.39 51.4304C102.619 51.6588 102.843 51.9045 103.011 52.1773C103.685 53.2652 104.348 54.3606 104.994 55.4658C107.614 59.9503 109.305 64.777 110.334 69.8569C110.924 72.7686 110.846 75.7075 110.831 78.6452C110.813 82.1621 109.95 85.5036 108.581 88.7163C108.086 89.8755 107.457 90.9764 106.902 92.1097C106.55 92.8263 106.409 93.5786 106.612 94.3699C106.757 94.9371 107.088 95.199 107.644 95.0215C108.125 94.8678 108.655 94.6372 108.983 94.2778C109.646 93.5483 110.185 92.7083 110.778 91.9149C111.122 91.4538 111.432 90.958 111.829 90.5467C112.37 89.987 113.028 90.0044 113.614 90.5229C113.801 90.6895 113.974 90.8779 114.125 91.0792C114.922 92.1487 115.697 93.2365 116.504 94.2984C118.716 97.2102 121.175 99.8914 124.034 102.181C125.814 103.607 127.724 104.848 129.906 105.58C132.146 106.33 133.629 105.384 133.971 103.05C133.98 102.996 133.984 102.943 133.991 102.889C134.106 101.958 134.226 101.028 134.332 100.096C134.459 98.9865 134.521 97.8661 134.708 96.7675C134.855 95.8961 135.559 95.5822 136.34 96.0141C136.966 96.3605 137.555 96.788 138.113 97.2394C138.84 97.8283 139.483 98.5275 140.23 99.0882C142.537 100.818 144.779 102.648 147.339 104.012C149.756 105.301 152.12 106.717 154.627 107.803C158.801 109.61 163.135 110.998 167.572 112.032C171.441 112.934 175.354 113.68 179.315 113.908C182.874 114.113 186.455 114.013 190.024 113.93C191.993 113.884 193.904 113.496 195.27 111.811C195.594 111.413 196.252 111.453 196.641 111.843C196.98 112.183 197.299 112.568 197.536 112.984C201.241 119.488 202.827 126.57 203.003 133.973C203.082 137.304 203.863 140.321 205.56 143.172C208.025 147.312 210.312 151.548 212.14 156.018C214.376 161.489 215.127 167.186 214.704 173.041C214.394 177.343 213.305 181.465 211.416 185.36C208.489 191.397 203.983 195.725 197.606 197.955C192.692 199.673 187.562 200.228 182.402 200.553C178.409 200.804 174.438 200.326 170.466 200.071C166.241 199.801 162.025 199.312 157.823 198.779C152.975 198.165 148.146 197.398 143.308 196.704C142.828 196.635 142.341 196.592 141.855 196.581C141.052 196.56 140.452 197.011 139.931 197.546C139.822 197.659 139.849 198.027 139.949 198.198C140.454 199.071 141.237 199.604 142.222 199.797C143.602 200.067 144.99 200.303 146.374 200.552C147.474 200.749 148.582 200.907 149.672 201.15C150.71 201.381 151.325 202.071 151.464 203.139C151.521 203.585 151.556 204.036 151.558 204.486C151.567 206.722 151.562 208.959 151.562 211.196H151.626C151.626 212.603 151.608 214.01 151.632 215.416C151.655 216.841 151.698 218.264 151.772 219.686C151.855 221.252 151.968 222.816 152.097 224.378C152.259 226.336 152.431 228.294 152.64 230.248C152.752 231.298 153.149 232.234 153.989 232.938C154.3 233.199 154.581 233.322 155.013 233.142C155.993 232.733 156.923 232.918 157.766 233.551C158.068 233.779 158.359 234.021 158.659 234.253C161.021 236.09 163.399 237.907 165.741 239.77C166.675 240.513 167.714 240.572 168.808 240.447C169.756 240.338 170.154 239.628 169.648 238.836C169.296 238.286 168.819 237.78 168.3 237.382C167.013 236.395 165.672 235.477 164.349 234.536C161.84 232.753 159.683 230.565 157.44 228.478C156.321 227.437 155.683 226.093 155.552 224.563C155.345 222.139 155.089 219.713 155.037 217.284C154.947 213.102 154.993 208.915 155 204.73C155.001 204.285 155.089 203.833 155.201 203.4C155.366 202.771 155.8 202.345 156.444 202.267C157.047 202.195 157.67 202.181 158.272 202.253C162.48 202.745 166.67 203.39 170.914 203.543C173.669 203.642 176.421 203.813 179.175 203.933C181.814 204.046 184.43 203.661 187.056 203.542C190.932 203.367 194.68 202.661 198.34 201.423C203.614 199.64 207.963 196.546 211.352 192.125C215.235 187.062 217.321 181.276 217.976 174.983C218.216 172.678 218.103 170.335 218.108 168.008C218.11 166.875 218.103 165.728 217.945 164.608C217.288 159.944 215.803 155.525 213.816 151.27C212.194 147.799 210.319 144.465 208.196 141.281C206.951 139.416 206.398 137.437 206.378 135.177C206.352 132.354 206.126 129.52 205.795 126.713C205.243 122.039 203.84 117.589 201.864 113.319C201.646 112.846 201.456 112.351 201.329 111.848C201.129 111.065 201.402 110.46 202.111 110.074C202.537 109.842 203.011 109.7 203.446 109.485C204.381 109.021 205.347 108.602 206.226 108.047C208.37 106.69 210.254 105.047 211.893 103.078C213.409 101.256 214.883 99.4194 216.106 97.3931C218.48 93.4574 220.174 89.2412 221.351 84.8C222.206 81.571 222.75 78.3107 222.62 74.966C222.592 74.2256 222.453 73.4462 222.171 72.7654C221.604 71.3928 220.156 71.1266 219.083 72.157C218.554 72.6658 218.094 73.2536 217.645 73.8392C214.783 77.5812 209.772 79.1377 205.285 77.724C202.486 76.8419 199.97 75.4022 197.481 73.9052C196.472 73.2979 196.26 72.4785 196.691 71.3907C196.791 71.1406 196.919 70.9014 197.038 70.6589C197.736 69.2334 198.531 67.8478 199.116 66.3779C200.389 63.1825 201.166 59.8389 201.717 56.4519C201.864 55.5437 201.841 54.5749 201.701 53.6635C201.523 52.5021 200.54 51.9976 199.425 52.3873C198.971 52.5464 198.54 52.7965 198.132 53.0563C195.861 54.5002 193.401 55.5188 190.839 56.3025C187.719 57.2561 184.509 57.7584 181.274 58.0593C180.22 58.1578 179.109 58.003 178.066 57.7757C176.834 57.5073 176.312 56.6987 176.371 55.4831C176.426 54.3671 176.511 53.2522 176.599 52.1373C176.837 49.1367 177.091 46.1373 177.324 43.1368C177.545 40.2975 177.769 37.4583 177.95 34.6158C178.064 32.8189 178.12 31.0177 178.159 29.2176C178.168 28.7782 178.064 28.3149 177.914 27.8981C177.531 26.8363 176.613 26.5288 175.659 27.1426C175.27 27.3937 174.901 27.7076 174.603 28.0616C172.423 30.6573 170.261 33.2681 168.1 35.8779C166.709 37.5568 165.331 39.2475 163.935 40.9221C163.778 41.1093 163.558 41.2652 163.337 41.3735C162.786 41.643 162.389 41.4947 162.171 40.9167C162.013 40.4978 161.887 40.0572 161.818 39.6156C161.114 35.1029 159.202 31.1693 156.175 27.7661C155.559 27.0744 154.877 26.4596 153.991 26.1229C153.052 25.7657 152.154 26.0147 151.633 26.8709C151.308 27.4035 151.118 28.0161 150.861 28.5909C150.338 29.7556 149.882 30.9582 149.269 32.0731C147.931 34.5 145.947 36.431 144.081 38.4292C142.696 39.9122 141.11 41.2122 139.577 42.5533C138.971 43.0837 138.299 43.5557 137.601 43.9594C136.758 44.4476 136.054 44.0796 135.904 43.1162C135.841 42.7114 135.883 42.2892 135.886 41.8757C135.901 40.0031 136.011 38.124 135.898 36.2589C135.841 35.2999 135.447 34.343 135.094 33.4273C134.855 32.8081 134.273 32.5137 133.595 32.4163C132.765 32.2961 132.014 32.5461 131.29 32.8687C130.205 33.3536 129.136 33.8819 128.071 34.4134C124.992 35.9504 122.093 37.7765 119.511 40.0551C118.106 41.2934 116.816 42.6637 115.509 44.0092C113.766 45.805 112.288 47.7999 111.128 50.0233C110.702 50.8383 110.313 51.6794 109.809 52.4447C109.106 53.5131 108.319 53.5304 107.507 52.5421C107.097 52.042 106.782 51.4651 106.385 50.952C105.406 49.6845 104.477 48.365 103.391 47.1948C102.222 45.936 100.841 45.9901 99.5617 47.1494C99.4015 47.2944 99.237 47.4384 99.0952 47.6008C98.2325 48.5944 97.3449 49.5676 96.5244 50.5948C94.0856 53.6451 92.2477 57.0591 90.6262 60.5912C89.9204 62.1293 89.3694 63.74 88.6821 65.2879C88.0196 66.7784 87.2251 67.1237 85.6393 66.7513C85.464 66.7102 85.2897 66.6604 85.1187 66.6052C81.5239 65.4719 77.8642 65.3777 74.2088 66.1354C68.7132 67.2763 63.9851 69.9164 60.0353 73.8944C57.5251 76.4208 55.3353 79.2102 53.454 82.2476C51.5359 85.3455 50.145 88.6556 49.2563 92.1725C48.9359 93.4411 48.7313 94.7552 48.6382 96.0606C48.5603 97.1571 48.9662 98.1681 50.0865 98.6109C50.5671 98.8014 51.1452 98.7656 51.6799 98.796C52.3629 98.8338 52.5924 98.9692 52.4971 99.6273C52.3683 100.509 52.1507 101.392 51.8596 102.235C50.0952 107.349 48.9467 112.559 48.938 118.009C48.9294 122.74 49.0961 127.457 49.6016 132.157C49.8625 134.59 49.9707 137.002 49.6903 139.438C49.3862 142.088 49.1729 144.743 48.6057 147.363C47.572 152.135 46.3792 156.87 45.8877 161.759C45.5597 165.021 45.8206 168.164 46.6693 171.285C46.823 171.849 47.191 172.4 47.5872 172.842ZM240.842 240.83H19.1579V19.1455H240.842V240.83Z" fill="#FAB8D4"/>
<path d="M78.138 123.038C78.1424 123.95 77.9096 124.861 77.8165 125.775C77.5113 128.778 76.8856 131.693 75.4038 134.359C75.0303 135.03 74.58 135.671 74.0843 136.257C73.6892 136.725 73.2021 136.699 72.8481 136.196C72.5559 135.781 72.3448 135.278 72.216 134.784C71.8999 133.581 71.6553 132.359 71.3782 131.147C70.7265 128.281 70.0067 125.43 69.4374 122.55C68.8518 119.593 69.0423 116.634 70.1085 113.808C71.954 108.919 74.9448 104.863 79.1815 101.753C80.3527 100.894 81.6538 100.176 82.4786 98.9083C82.5522 98.7946 82.6929 98.7167 82.8163 98.6453C83.1064 98.4764 83.3576 98.2307 83.1876 97.9135C83.0967 97.7436 82.759 97.6494 82.5208 97.6245C80.6839 97.4254 79.1176 98.1463 77.6942 99.1865C74.6223 101.431 71.796 103.916 69.7231 107.179C68.3419 109.355 67.0722 111.559 66.4596 114.088C65.6217 117.544 65.5232 121.016 66.2918 124.491C67.0506 127.923 67.857 131.346 68.6623 134.769C69.1375 136.785 69.3345 138.818 69.1635 140.887C69.105 141.604 69.0282 142.327 69.052 143.044C69.105 144.633 70.2968 145.343 71.7094 144.614C72.2452 144.338 72.728 143.936 73.1826 143.532C74.672 142.211 75.7112 140.531 76.7893 138.889C78.7907 135.837 80.1351 132.524 80.8192 128.927C81.2522 126.652 81.1721 124.367 81.0758 122.079C81.0758 120.386 81.1061 118.692 81.0617 116.999C81.0422 116.231 80.7629 115.515 80.1882 114.957C79.4186 114.211 78.9239 114.428 78.44 115.174C78.2008 115.541 78.0103 115.988 77.9562 116.419C77.8674 117.128 77.8707 117.854 77.901 118.571C77.9648 120.061 78.1315 121.549 78.138 123.038ZM50.3972 160.51C50.1645 160.368 49.9328 160.011 49.9307 159.743C49.9242 158.882 49.9328 158.002 50.0995 157.161C50.7035 154.119 51.4244 151.099 52.0025 148.052C52.3889 146.019 52.5967 143.953 52.902 141.904C53.2938 139.27 53.3025 136.621 53.2419 133.969C53.2224 133.123 53.1477 132.276 53.0524 131.435C52.4571 126.177 52.1269 120.9 52.4333 115.618C52.6259 112.3 53.3923 109.052 54.4196 105.884C56.1201 100.637 58.4213 95.6805 61.6589 91.1905C62.1016 90.5767 62.5758 89.9836 63.0607 89.4023C63.9093 88.3837 64.9463 87.6141 66.2225 87.2168C67.857 86.707 69.5088 86.2502 71.1379 85.7209C71.6748 85.5466 72.2171 85.2868 72.6587 84.9405C73.4846 84.2942 73.3493 83.3872 72.4043 82.9076C71.5957 82.4974 70.719 82.5245 69.8595 82.6316C67.1036 82.9748 64.5328 83.9295 62.0952 85.2089C60.1825 86.2134 58.3488 87.3684 56.474 88.4465C56.1482 88.6338 55.8062 88.8124 55.449 88.9184C54.9965 89.0516 54.6555 88.8243 54.6837 88.3567C54.714 87.8284 54.7876 87.2623 55.0106 86.7925C57.5478 81.4572 60.9986 76.8416 65.9205 73.4763C69.0726 71.3201 72.4714 69.6174 76.339 69.2299C79.0873 68.9539 81.8497 68.9355 84.519 69.914C86.383 70.597 86.9177 71.4229 86.6731 73.406C86.4566 75.1595 86.2477 76.9142 86.0583 78.671C85.7812 81.2472 85.9273 83.8093 86.1827 86.3855C86.6817 91.4221 88.2264 96.1502 90.2159 100.752C92.3418 105.672 93.7956 110.779 94.4234 116.092C94.7665 118.988 95.0263 121.918 94.9808 124.826C94.9105 129.264 94.2599 133.655 93.2738 137.999C92.4176 141.767 91.2399 145.411 89.4874 148.851C87.0195 153.695 83.9226 158.094 79.8169 161.702C77.0372 164.144 74.1124 166.408 70.8196 168.146C70.5653 168.28 70.3011 168.404 70.0305 168.5C69.0477 168.845 68.3408 168.369 68.2997 167.315C68.2791 166.776 68.3333 166.234 68.3279 165.694C68.29 162.541 68.2889 159.385 68.1763 156.234C68.1406 155.221 67.8895 154.191 67.5734 153.221C67.384 152.639 66.925 152.118 66.5007 151.646C66.1521 151.26 65.7419 151.329 65.363 151.702C64.8251 152.234 64.6616 152.924 64.6475 153.633C64.6335 154.352 64.7136 155.072 64.7612 155.791C64.8283 156.834 64.9647 157.875 64.9636 158.918C64.9593 161.188 65.0048 163.468 64.8034 165.724C64.6508 167.436 64.194 169.126 63.7816 170.804C63.5662 171.679 63.0997 172.471 62.4004 173.09C61.7596 173.659 61.1047 173.529 60.9445 172.7C60.7573 171.734 60.7616 170.733 60.6577 169.749C60.4195 167.473 60.0591 165.205 59.9465 162.923C59.8101 160.155 59.7863 157.372 59.9065 154.604C59.9508 153.569 60.4174 152.498 60.8991 151.547C62.382 148.621 63.3573 145.537 63.8758 142.314C64.3109 139.607 64.5804 136.877 64.4062 134.124C64.3412 133.107 64.2178 132.105 63.5759 131.259C63.2707 130.857 62.9416 130.387 62.3798 130.457C61.7747 130.533 61.4727 131.059 61.3526 131.593C61.1956 132.291 61.1123 133.013 61.0722 133.728C61.0257 134.555 61.0614 135.387 61.0614 136.217C61.4533 140.518 60.0634 144.441 58.4928 148.327C57.3064 151.261 55.4966 153.831 53.7809 156.457C53.1498 157.424 52.5134 158.386 51.8596 159.338C51.6474 159.648 51.4028 159.95 51.1192 160.193C50.9179 160.365 50.5303 160.591 50.3972 160.51Z" fill="#FAB8D4"/>
</svg>
