<?xml version="1.0" standalone="no"?>
<!DOCTYPE svg PUBLIC "-//W3C//DTD SVG 20010904//EN"
 "http://www.w3.org/TR/2001/REC-SVG-20010904/DTD/svg10.dtd">
<svg version="1.0" xmlns="http://www.w3.org/2000/svg"
 width="50.000000pt" height="50.000000pt" viewBox="0 0 50.000000 50.000000"
 preserveAspectRatio="xMidYMid meet">

<g transform="translate(0.000000,50.000000) scale(0.100000,-0.100000)"
fill="#000000" stroke="none">
<path d="M125 344 c36 -53 69 -102 72 -110 3 -8 -20 -43 -54 -81 -71 -81 -79
-93 -61 -93 8 0 40 31 72 70 32 38 61 70 65 70 3 0 28 -32 54 -70 l48 -70 60
0 60 0 -77 110 c-67 97 -74 113 -63 128 8 9 38 45 68 80 34 39 48 62 38 62 -8
0 -41 -29 -72 -65 -32 -36 -61 -62 -66 -59 -5 3 -27 32 -49 65 l-41 59 -60 0
-61 0 67 -96z m162 -96 l114 -168 -35 0 c-34 0 -38 5 -143 158 -60 86 -113
163 -117 170 -6 10 1 13 29 10 37 -3 41 -8 152 -170z"/>
</g>
</svg>
