<svg width="200" height="200" viewBox="0 0 200 200" fill="none" xmlns="http://www.w3.org/2000/svg">
<rect width="200" height="200" rx="100" fill="#FAB8D4"/>
<path d="M156.38 135.146C155.614 135.529 155.005 135.154 154.905 134.298C154.782 133.23 155.945 131.735 157.007 131.599C157.557 131.528 157.915 131.945 157.922 132.798C157.823 133.748 157.385 134.641 156.38 135.146Z" fill="black"/>
<path d="M152.865 107.768C152.094 108.639 150.857 108.511 150.348 107.465C150.079 106.913 150.029 106.25 149.903 105.631C149.862 105.431 149.896 105.216 149.896 105.008C149.855 105.002 149.812 104.994 149.771 104.987C149.937 104.079 150.05 103.156 150.295 102.271C150.419 101.828 150.729 101.397 151.056 101.058C151.603 100.49 152.513 100.512 153.016 101.119C153.329 101.499 153.601 101.983 153.698 102.46C153.986 103.88 153.913 105.308 153.466 106.693C153.342 107.077 153.132 107.467 152.865 107.768Z" fill="black"/>
<path d="M141.347 140.997C143.084 141.16 144.811 141.456 146.551 141.565C147.52 141.625 148.505 141.401 149.484 141.334C150.02 141.296 150.563 141.27 151.094 141.327C151.538 141.376 151.977 141.573 152.11 142.065C152.245 142.57 151.982 142.974 151.602 143.256C151.297 143.481 150.94 143.703 150.577 143.769C149.324 143.995 148.059 144.152 146.729 144.346C144.885 144.087 142.99 143.838 141.102 143.545C140.452 143.444 139.863 143.159 139.419 142.629C138.948 142.068 139.039 141.372 139.722 141.144C140.227 140.976 140.811 140.947 141.347 140.997Z" fill="black"/>
<path d="M136.041 53.7159C135.55 53.9715 135.299 53.9099 135.142 53.3679C134.997 52.8691 134.88 52.3329 134.905 51.82C134.958 50.6726 135.073 49.5244 135.225 48.3853C135.363 47.3462 135.856 46.9631 136.919 46.9548C137.737 46.9482 138.556 46.954 139.011 46.954C142.533 47.0989 145.583 46.4952 148.584 45.5801C149.194 45.3936 149.781 45.1338 150.394 44.9656C151.373 44.6975 151.836 45.0739 151.8 46.0797C151.789 46.382 151.751 46.6909 151.672 46.9831C151.182 48.7933 150.607 50.5743 149.731 52.2413C149.538 52.6085 149.315 52.9632 149.076 53.3021C148.472 54.1606 147.694 54.4478 146.682 54.188C146.306 54.0915 145.939 53.9607 145.574 53.8283C143.946 53.2372 142.261 52.9016 140.541 52.7709C138.959 52.6518 137.452 52.9799 136.041 53.7159Z" fill="#FAB8D4"/>
<path d="M144.067 132.732C144.217 132.754 144.37 132.785 144.509 132.842C145.627 133.297 146.479 134.057 147.064 135.11C147.142 135.252 147.19 135.42 147.215 135.581C147.321 136.308 147.011 136.653 146.265 136.682C146.012 136.62 145.739 136.598 145.509 136.488C144.493 136.002 143.648 135.296 142.998 134.373C142.725 133.986 142.654 133.534 142.916 133.121C143.178 132.708 143.62 132.669 144.067 132.732Z" fill="black"/>
<path d="M134.898 55.29C135.201 54.6714 135.328 54.7113 135.91 55.0419C136.363 55.2992 136.912 55.4391 137.434 55.5073C137.935 55.5723 138.46 55.5107 138.967 55.4466C140.523 55.2517 141.993 55.6456 143.473 56.0377C145.589 56.599 147.458 57.7122 149.396 58.6656C151.125 59.5157 152.792 60.4924 154.529 61.3251C155.562 61.8197 156.65 62.2526 157.76 62.5199C160.567 63.1969 163.296 62.8613 165.909 61.6198C166.235 61.4649 166.557 61.2968 166.895 61.176C167.683 60.8954 168.186 61.201 168.103 62.0237C168 63.0511 167.827 64.0895 167.529 65.0761C166.738 67.6948 165.792 70.2652 164.453 72.6591C163.225 74.8548 161.782 76.9164 160.015 78.7182C158.551 80.2104 156.823 81.3336 154.846 82.0513C153.377 82.5834 152.484 82.4102 151.675 81.2761C150.438 79.5442 149.055 77.9447 147.569 76.4226C146.124 74.9405 144.833 73.3252 143.692 71.5966C142.901 70.3984 141.988 69.3118 140.983 68.2868C140.12 67.4067 139.375 66.41 138.506 65.5383C137.636 64.6665 136.699 63.8571 135.748 63.0728C134.758 62.2551 134.111 61.3051 134.191 59.9595C134.331 58.7056 134.459 57.4507 134.618 56.1993C134.658 55.8887 134.76 55.5723 134.898 55.29Z" fill="#FAB8D4"/>
<path d="M133.266 35.5253C133.071 36.0324 132.687 36.0799 132.357 35.6536C132.174 35.4162 132.014 35.1448 131.909 34.8642C131.478 33.7126 131.262 32.5145 131.218 31.6194C131.198 30.034 131.587 28.9424 132.498 28.059C132.558 28.0007 132.619 27.9441 132.683 27.8916C133.357 27.3429 133.844 27.5119 134.007 28.367C134.059 28.6368 134.087 28.9216 134.065 29.1939C133.933 30.8517 133.801 32.5103 133.629 34.1639C133.581 34.6269 133.434 35.089 133.266 35.5253Z" fill="#FAB8D4"/>
<path d="M120.411 43.288C120.979 42.8534 121.506 42.9808 121.807 43.6244C122.028 44.099 122.187 44.6069 122.335 45.1115C123.433 48.8351 125.394 52.0475 128.086 54.8252C128.526 55.2781 129.04 55.6237 129.667 55.7869C130.21 55.9284 130.712 55.901 131.154 55.493C131.775 55.9959 131.963 57.6853 131.437 58.4139C131.183 58.7678 130.84 58.9285 130.425 58.8119C130.095 58.7195 129.768 58.5838 129.473 58.4097C126.24 56.5046 122.911 54.796 119.405 53.4463C118.343 53.0383 117.272 52.6545 116.207 52.2531C115.935 52.1507 115.664 52.0408 115.405 51.9101C114.541 51.4729 114.351 50.8443 114.883 50.0358C115.233 49.5046 115.65 49.0166 116.046 48.517C117.185 47.0841 118.322 45.6494 119.476 44.2281C119.754 43.8858 120.063 43.5553 120.411 43.288Z" fill="#FAB8D4"/>
<path d="M124.161 100.611C125 99.2961 126.625 99.2387 127.658 100.407C128.141 100.952 128.443 101.592 128.542 102.304C128.834 104.414 128.666 106.489 127.89 108.482C127.7 108.969 127.37 109.441 126.994 109.807C126.163 110.618 124.968 110.469 124.283 109.529C123.779 108.836 123.551 108.036 123.486 107.195C123.426 106.394 123.41 105.59 123.374 104.773C123.409 104.01 123.371 103.222 123.502 102.464C123.613 101.824 123.815 101.151 124.161 100.611Z" fill="black"/>
<path d="M127.684 34.1779C128.18 33.7958 128.67 33.9023 128.986 34.4394C129.168 34.7475 129.304 35.088 129.418 35.4277C129.851 36.7225 130.337 37.9906 131.239 39.0473C131.528 39.3837 131.841 39.7001 132.15 40.0173C132.868 40.7534 133.026 41.1497 133.031 42.1805C132.888 43.8525 132.738 45.5236 132.604 47.1956C132.468 48.91 132.349 50.6252 132.219 52.3397C132.162 53.1032 132.088 53.8626 131.642 54.5245C131.314 55.0125 131.141 55.02 130.767 54.567C130.008 53.6478 129.169 52.7818 128.503 51.7993C127.713 50.6327 127.003 49.3996 126.378 48.1365C125.275 45.9041 124.435 43.571 123.985 41.1064C123.74 39.7575 123.92 38.5643 124.866 37.501C125.538 36.7467 126.105 35.899 126.745 35.1138C127.023 34.7725 127.336 34.4461 127.684 34.1779Z" fill="#FAB8D4"/>
<path d="M95.1232 49.2253C95.3955 49.5958 95.8601 49.4443 96.1698 49.3302C96.6886 49.1395 97.2473 48.888 97.6212 48.5C99.5912 46.4542 101.16 44.1278 102.247 41.4916C102.432 41.0428 102.621 40.5949 102.825 40.1544C103.116 39.5299 103.523 38.9962 104.067 38.5615C106.018 37.0037 107.975 35.4533 109.899 33.8621C110.633 33.2534 111.299 32.5582 111.969 31.8754C113.405 30.4108 114.967 29.0602 116.128 27.3449C116.596 26.6563 117.042 25.9536 117.496 25.2567C117.55 25.1751 117.596 25.0901 117.651 25.0102C118.299 24.066 119.116 24.0235 119.73 24.996C120.277 25.8587 120.749 26.7812 121.143 27.723C122.142 30.1127 122.457 32.6098 122.161 35.1868C122 36.5882 121.284 37.7106 120.438 38.7755C117.749 42.1661 115.058 45.5541 112.366 48.9438C112.262 49.0737 112.153 49.1995 112.05 49.331C111.207 50.4043 110.147 50.8439 108.76 50.6424C106.431 50.3035 104.083 50.4268 101.739 50.5167C101.067 50.5425 100.52 50.8656 100.015 51.2686C99.7636 51.4693 99.7369 51.7615 99.98 51.9497C100.346 52.2328 100.739 52.5484 101.171 52.6624C101.915 52.8598 102.695 52.9788 103.466 53.0113C104.781 53.0663 106.103 53.0771 107.419 53.0221C109.809 52.9231 112.07 53.4659 114.304 54.2311C118.055 55.5159 121.676 57.1021 125.138 59.0247C128.502 60.8915 131.748 62.944 134.584 65.581C135.629 66.5527 136.736 67.4628 137.735 68.4803C140.652 71.4528 142.988 74.8583 144.928 78.5295C145.632 79.8617 146.188 81.2739 146.786 82.6602C146.915 82.96 146.968 83.3031 146.997 83.632C147.056 84.2773 146.747 84.741 146.124 84.9234C145.796 85.02 145.443 85.0758 145.101 85.0783C143.172 85.0941 141.234 85.2098 139.317 85.0591C136.999 84.8768 134.689 84.5179 132.393 84.1357C127.869 83.3822 123.48 82.109 119.327 80.1673C116.113 78.6644 112.991 76.9533 110.217 74.6926C108.52 73.3088 106.814 71.9341 105.137 70.5261C103.899 69.4869 103.29 68.1047 103.054 66.521C102.657 63.8624 101.744 61.3586 100.605 58.9423C100.028 57.7166 99.3247 56.5484 98.6478 55.3727C98.3222 54.8082 97.7502 54.5184 97.1682 54.2744C96.8393 54.1371 96.6186 54.3261 96.6053 54.6217C96.5795 55.1679 96.5412 55.7416 96.6761 56.2603C96.8443 56.9106 97.1432 57.5359 97.4505 58.1396C99.1041 61.3844 100.197 64.8033 100.688 68.412C100.757 68.9199 100.809 69.4336 100.814 69.9457C100.834 71.8883 100.838 73.8309 100.834 75.7734C100.834 76.1464 100.807 76.5245 100.739 76.89C100.575 77.7718 99.9492 78.1614 99.1141 77.8259C98.5304 77.5911 97.9542 77.2722 97.4646 76.8792C94.2273 74.2738 91.4188 71.2879 89.4254 67.6001C89.2938 67.3562 89.1639 67.1105 89.0274 66.8691C88.1839 65.3795 87.6569 63.8224 87.8292 62.0664C87.9091 61.2554 87.8425 60.4302 87.8425 59.6117C87.855 57.3094 87.9524 54.998 87.4129 52.7332C87.0782 51.331 86.7926 49.9022 86.2955 48.5558C85.507 46.4192 85.7617 44.3626 86.5386 42.3393C88.0482 38.4075 90.4895 35.151 93.7718 32.4982C95.6952 30.9445 97.7752 29.6622 99.9759 28.5598C100.271 28.4116 100.589 28.2867 100.91 28.2184C101.686 28.0544 102.213 28.3874 102.3 29.1768C102.376 29.8587 102.388 30.5665 102.297 31.2459C101.852 34.6048 101.036 37.8713 99.5904 40.9496C98.6203 43.0145 97.4221 44.9471 96.0225 46.754C95.7094 47.157 95.4246 47.5899 95.1848 48.0404C94.9892 48.4076 94.8459 48.8489 95.1232 49.2253Z" fill="#FAB8D4"/>
<path d="M76.8824 71.5046C76.7334 71.9218 76.4511 71.9276 76.1047 71.632C75.3428 70.9817 74.9232 70.1424 74.6917 69.1899C74.183 67.0891 73.5776 64.453 73.6842 61.4729C73.556 57.5611 74.5477 53.9483 76.0681 50.452C76.4278 49.626 76.7983 48.8033 77.208 48.0015C77.4444 47.5394 77.8208 47.173 78.3337 47.0023C79.004 46.7783 79.4686 47.0439 79.4878 47.745C79.5019 48.2721 79.4386 48.8341 79.2604 49.3262C78.7276 50.7992 78.0573 52.2247 77.5585 53.7076C76.7767 56.0324 76.3137 58.4262 76.3512 60.895C76.3537 61.1007 76.3695 61.3172 76.4411 61.5054C76.4927 61.6403 76.6368 61.8101 76.76 61.8284C76.8799 61.8459 77.0897 61.7235 77.148 61.6061C77.3329 61.2373 77.5002 60.8526 77.6101 60.4554C77.8058 59.7477 77.9274 59.0191 78.1297 58.3138C78.3312 57.6111 78.6393 56.9366 78.8141 56.2289C78.9482 55.686 78.9524 55.1115 79.0057 54.5494C79.0323 54.2747 78.9998 53.9874 79.0681 53.7243C79.1072 53.5702 79.2913 53.4528 79.4103 53.3188C79.5435 53.4562 79.7725 53.5811 79.7925 53.7334C79.8716 54.3363 79.8833 54.9483 79.9249 55.5561C79.9341 55.6927 79.9241 55.8559 79.994 55.9591C80.4903 56.6993 80.5244 57.517 80.4386 58.3613C80.1922 60.7835 79.8291 63.1807 78.8574 65.4396C78.5943 66.05 78.2829 66.6403 77.9848 67.2357C77.5802 68.0417 77.3995 68.8935 77.3254 69.7936C77.2779 70.3731 77.0797 70.9501 76.8824 71.5046Z" fill="black"/>
<path d="M71.7289 115.422C72.1095 115.046 72.3926 115.143 72.5199 115.658C72.5499 115.779 72.5732 115.903 72.5857 116.026C72.6015 116.192 72.604 116.358 72.6115 116.525C72.4292 118.189 72.0653 119.817 71.4367 121.363C70.3218 124.107 68.7672 126.594 66.8829 128.881C65.5682 130.475 64.2867 132.096 62.9828 133.7C61.8196 135.131 60.6239 136.537 59.4798 137.984C57.4157 140.594 55.7088 143.413 54.7804 146.634C54.424 147.87 54.2333 149.153 53.9652 150.414C53.9053 150.698 53.867 150.992 53.7646 151.261C53.5955 151.708 53.2733 151.788 52.9286 151.458C52.6813 151.221 52.4398 150.952 52.2841 150.652C50.6005 147.401 49.9768 143.938 50.4614 140.324C50.762 138.081 51.8953 136.145 53.1434 134.288C53.9402 133.101 54.9661 132.182 56.2009 131.461C57.2175 130.867 58.2142 130.231 59.1759 129.551C62.101 127.482 64.728 125.094 66.9762 122.287C68.5074 120.374 69.8596 118.35 71.0961 116.241C71.2693 115.944 71.485 115.661 71.7289 115.422Z" fill="#FAB8D4"/>
<path d="M66.3542 152.175C66.1819 152.679 65.7972 152.779 65.4475 152.386C65.2027 152.112 64.9812 151.794 64.8313 151.458C63.8521 149.255 63.1335 146.97 62.7897 144.579C62.6656 143.717 62.6131 142.845 62.5332 142.029C62.6098 141.152 62.6589 140.336 62.7564 139.525C62.9104 138.245 63.4974 137.173 64.3276 136.191C65.9396 134.286 67.5016 132.34 69.0936 130.418C69.4908 129.938 69.898 129.462 70.3401 129.025C70.9896 128.384 71.5716 128.542 71.6982 129.449C71.8114 130.263 71.8281 131.112 71.7398 131.93C71.2968 136.02 70.1619 139.917 68.3726 143.626C67.4758 145.484 67.0903 147.489 66.7847 149.51C66.6873 150.154 66.614 150.802 66.5183 151.446C66.4825 151.693 66.4342 151.941 66.3542 152.175Z" fill="#FAB8D4"/>
<path d="M60.3386 88.5955C60.7108 88.0218 61.0913 87.8545 61.6833 88.4282C62.1255 88.8578 62.3403 89.4082 62.3553 89.9994C62.3894 91.3016 62.3661 92.6047 62.3661 93.907C62.4402 95.6672 62.5018 97.4249 62.1688 99.1743C61.6425 101.941 60.6084 104.49 59.0688 106.838C58.2395 108.101 57.4402 109.393 56.2944 110.409C55.9447 110.72 55.5734 111.03 55.1612 111.242C54.0746 111.802 53.1579 111.256 53.1171 110.034C53.0987 109.483 53.1579 108.926 53.2028 108.374C53.3344 106.783 53.1828 105.219 52.8173 103.668C52.1978 101.035 51.5775 98.4025 50.9938 95.7621C50.4026 93.0893 50.4784 90.4182 51.1229 87.7604C51.5942 85.8145 52.5708 84.1192 53.6333 82.4456C55.2278 79.9352 57.4019 78.0242 59.7649 76.2973C60.8599 75.4971 62.0647 74.9426 63.4777 75.0958C63.6609 75.115 63.9207 75.1874 63.9906 75.3181C64.1213 75.5621 63.9282 75.7511 63.705 75.881C63.6101 75.9359 63.5019 75.9959 63.4452 76.0833C62.8108 77.0584 61.8099 77.6104 60.909 78.2715C57.65 80.6637 55.3494 83.7837 53.9297 87.5447C53.1096 89.7188 52.963 91.9944 53.4135 94.2692C53.8515 96.4849 54.4052 98.6781 54.9064 100.882C55.1196 101.815 55.3078 102.755 55.5509 103.68C55.65 104.06 55.8123 104.447 56.0372 104.766C56.3094 105.153 56.6841 105.173 56.988 104.813C57.3694 104.363 57.7158 103.87 58.003 103.353C59.1429 101.303 59.6242 99.0602 59.859 96.7496C59.9306 96.0469 60.1096 95.3458 60.1063 94.6447C60.1013 93.499 59.9731 92.3549 59.924 91.2084C59.9006 90.6572 59.8981 90.0985 59.9664 89.5531C60.0081 89.2217 60.1546 88.8778 60.3386 88.5955Z" fill="black"/>
<path d="M52.2843 150.652C52.44 150.952 52.6815 151.221 52.9288 151.458C53.2735 151.788 53.5957 151.708 53.7647 151.261C53.8672 150.992 53.9055 150.698 53.9654 150.414C54.2335 149.153 54.4242 147.87 54.7806 146.634C55.709 143.413 57.4159 140.594 59.48 137.984C60.6241 136.537 61.8198 135.131 62.983 133.7C64.2869 132.096 65.5684 130.475 66.8831 128.881C68.7674 126.594 70.3219 124.107 71.4369 121.363C72.0655 119.817 72.4294 118.189 72.6117 116.525C72.6042 116.358 72.6017 116.192 72.5859 116.026C72.5734 115.903 72.5501 115.779 72.5201 115.658C72.3927 115.144 72.1096 115.046 71.7291 115.422C71.4852 115.661 71.2695 115.945 71.0963 116.241C69.8598 118.35 68.5076 120.374 66.9764 122.287C64.7282 125.094 62.1012 127.483 59.1761 129.551C58.2144 130.231 57.2177 130.867 56.2011 131.461C54.9663 132.182 53.9404 133.101 53.1436 134.288C51.8955 136.145 50.7622 138.081 50.4616 140.324C49.977 143.938 50.6007 147.401 52.2843 150.652ZM135.748 63.073C136.699 63.8574 137.636 64.6667 138.506 65.5385C139.375 66.4103 140.12 67.407 140.983 68.2871C141.988 69.3121 142.901 70.3987 143.692 71.5968C144.833 73.3254 146.124 74.9408 147.569 76.4229C149.055 77.9449 150.438 79.5445 151.675 81.2764C152.484 82.4104 153.377 82.5836 154.846 82.0516C156.823 81.3338 158.551 80.2106 160.015 78.7185C161.782 76.9166 163.225 74.855 164.453 72.6593C165.792 70.2654 166.738 67.6951 167.529 65.0764C167.827 64.0897 168 63.0514 168.103 62.0239C168.186 61.2012 167.683 60.8956 166.895 61.1762C166.557 61.297 166.235 61.4652 165.909 61.62C163.296 62.8615 160.567 63.1971 157.76 62.5201C156.65 62.2529 155.562 61.8199 154.529 61.3253C152.792 60.4926 151.125 59.5159 149.396 58.6658C147.458 57.7124 145.589 56.5992 143.473 56.038C141.993 55.6458 140.523 55.252 138.967 55.4468C138.46 55.5109 137.935 55.5725 137.434 55.5076C136.912 55.4393 136.363 55.2994 135.91 55.0421C135.328 54.7116 135.201 54.6716 134.898 55.2903C134.76 55.5725 134.658 55.8889 134.618 56.1995C134.459 57.451 134.331 58.7058 134.191 59.9597C134.111 61.3053 134.758 62.2554 135.748 63.073ZM135.142 53.3677C135.299 53.9097 135.55 53.9713 136.041 53.7157C137.453 52.9797 138.959 52.6516 140.541 52.7707C142.261 52.9014 143.946 53.2369 145.574 53.8281C145.939 53.9605 146.306 54.0912 146.682 54.1878C147.694 54.4476 148.472 54.1604 149.076 53.3019C149.315 52.963 149.538 52.6083 149.731 52.2411C150.607 50.5741 151.182 48.7931 151.672 46.9829C151.751 46.6907 151.789 46.3818 151.8 46.0795C151.836 45.0737 151.374 44.6973 150.394 44.9654C149.781 45.1336 149.194 45.3934 148.584 45.5799C145.583 46.495 142.533 47.0987 139.011 46.9538C138.556 46.9538 137.737 46.948 136.919 46.9546C135.856 46.9629 135.363 47.346 135.225 48.3851C135.073 49.5242 134.958 50.6724 134.905 51.8198C134.88 52.3327 134.997 52.8689 135.142 53.3677ZM131.218 31.6197C131.262 32.5148 131.477 33.713 131.909 34.8646C132.014 35.1452 132.174 35.4166 132.357 35.6539C132.686 36.0802 133.071 36.0328 133.266 35.5257C133.434 35.0894 133.581 34.6273 133.629 34.1643C133.801 32.5107 133.933 30.852 134.065 29.1942C134.087 28.922 134.059 28.6372 134.007 28.3674C133.844 27.5123 133.357 27.3433 132.683 27.892C132.619 27.9444 132.558 28.001 132.498 28.0593C131.587 28.9428 131.198 30.0344 131.218 31.6197ZM123.985 41.1061C124.435 43.5707 125.275 45.9038 126.378 48.1361C127.003 49.3993 127.713 50.6324 128.503 51.799C129.169 52.7815 130.008 53.6474 130.767 54.5667C131.141 55.0196 131.313 55.0122 131.641 54.5242C132.088 53.8623 132.162 53.1029 132.219 52.3394C132.348 50.6249 132.467 48.9097 132.604 47.1952C132.738 45.5233 132.888 43.8522 133.031 42.1802C133.026 41.1494 132.868 40.7531 132.15 40.017C131.84 39.6998 131.527 39.3833 131.239 39.047C130.337 37.9903 129.851 36.7222 129.417 35.4274C129.303 35.0877 129.168 34.7472 128.986 34.4391C128.67 33.902 128.18 33.7954 127.684 34.1776C127.336 34.4457 127.023 34.7721 126.745 35.1135C126.105 35.8987 125.538 36.7463 124.866 37.5007C123.92 38.564 123.74 39.7572 123.985 41.1061ZM116.208 52.2536C117.272 52.6549 118.343 53.0388 119.405 53.4468C122.911 54.7965 126.24 56.5051 129.473 58.4102C129.768 58.5842 130.095 58.7199 130.425 58.8124C130.84 58.9289 131.183 58.7682 131.437 58.4144C131.963 57.6858 131.776 55.9963 131.154 55.4934C130.712 55.9014 130.21 55.9289 129.667 55.7873C129.04 55.6241 128.526 55.2786 128.086 54.8256C125.394 52.0479 123.433 48.8356 122.335 45.112C122.187 44.6074 122.029 44.0995 121.807 43.6249C121.506 42.9812 120.979 42.8538 120.412 43.2885C120.064 43.5557 119.754 43.8863 119.476 44.2285C118.322 45.6499 117.185 47.0845 116.046 48.5175C115.65 49.0171 115.233 49.505 114.884 50.0362C114.352 50.8447 114.541 51.4734 115.405 51.9105C115.664 52.0413 115.935 52.1512 116.208 52.2536ZM86.5386 42.3392C85.7617 44.3626 85.507 46.4192 86.2955 48.5558C86.7926 49.9022 87.0782 51.331 87.4129 52.7332C87.9524 54.998 87.855 57.3094 87.8425 59.6117C87.8425 60.4302 87.9091 61.2553 87.8292 62.0663C87.6568 63.8224 88.1839 65.3795 89.0274 66.8691C89.1639 67.1105 89.2938 67.3562 89.4254 67.6001C91.4188 71.2879 94.2273 74.2738 97.4646 76.8792C97.9542 77.2722 98.5304 77.5911 99.1141 77.8259C99.9492 78.1614 100.575 77.7718 100.739 76.89C100.807 76.5245 100.833 76.1464 100.834 75.7734C100.838 73.8308 100.834 71.8883 100.814 69.9457C100.809 69.4336 100.757 68.9199 100.688 68.412C100.197 64.8033 99.1041 61.3844 97.4505 58.1396C97.1432 57.5359 96.8443 56.9106 96.6761 56.2603C96.5412 55.7416 96.5795 55.1679 96.6053 54.6216C96.6186 54.326 96.8393 54.137 97.1682 54.2744C97.7502 54.5184 98.3222 54.8082 98.6478 55.3727C99.3247 56.5484 100.027 57.7166 100.605 58.9423C101.744 61.3586 102.657 63.8624 103.054 66.521C103.29 68.1047 103.899 69.4869 105.137 70.5261C106.814 71.9341 108.52 73.3088 110.217 74.6926C112.991 76.9533 116.113 78.6644 119.327 80.1673C123.48 82.109 127.869 83.3821 132.393 84.1357C134.689 84.5179 136.999 84.8767 139.317 85.0591C141.234 85.2098 143.172 85.0941 145.101 85.0782C145.443 85.0757 145.796 85.02 146.124 84.9234C146.747 84.741 147.056 84.2772 146.997 83.6319C146.968 83.303 146.915 82.96 146.786 82.6602C146.188 81.2739 145.632 79.8617 144.928 78.5295C142.988 74.8583 140.652 71.4528 137.735 68.4802C136.736 67.4627 135.629 66.5527 134.584 65.581C131.748 62.944 128.502 60.8915 125.138 59.0247C121.676 57.1021 118.055 55.5159 114.304 54.2311C112.07 53.4659 109.809 52.923 107.419 53.0221C106.103 53.0771 104.781 53.0663 103.465 53.0113C102.695 52.9788 101.915 52.8598 101.171 52.6624C100.739 52.5483 100.346 52.2328 99.98 51.9497C99.7369 51.7615 99.7635 51.4692 100.015 51.2686C100.52 50.8656 101.067 50.5425 101.739 50.5167C104.082 50.4268 106.431 50.3035 108.76 50.6424C110.147 50.8439 111.207 50.4043 112.05 49.331C112.153 49.1994 112.262 49.0737 112.366 48.9438C115.058 45.5541 117.749 42.1661 120.438 38.7755C121.284 37.7106 122 36.5881 122.161 35.1868C122.457 32.6098 122.142 30.1126 121.143 27.7229C120.749 26.7812 120.277 25.8586 119.73 24.996C119.116 24.0235 118.299 24.0659 117.651 25.0102C117.596 25.0901 117.55 25.175 117.496 25.2566C117.042 25.9536 116.596 26.6563 116.128 27.3449C114.967 29.0602 113.405 30.4107 111.969 31.8754C111.299 32.5581 110.633 33.2534 109.899 33.8621C107.975 35.4532 106.018 37.0036 104.067 38.5615C103.523 38.9962 103.116 39.5299 102.825 40.1544C102.621 40.5948 102.432 41.0428 102.247 41.4916C101.16 44.1278 99.5912 46.4542 97.6211 48.5C97.2473 48.888 96.6886 49.1395 96.1698 49.3302C95.8601 49.4442 95.3955 49.5958 95.1232 49.2252C94.8459 48.8489 94.9891 48.4076 95.1848 48.0404C95.4246 47.5899 95.7094 47.1569 96.0225 46.7539C97.4221 44.9471 98.6203 43.0145 99.5904 40.9496C101.036 37.8713 101.852 34.6048 102.297 31.2459C102.388 30.5664 102.376 29.8587 102.3 29.1767C102.213 28.3874 101.686 28.0543 100.91 28.2184C100.589 28.2866 100.271 28.4115 99.9759 28.5598C97.7752 29.6622 95.6952 30.9445 93.7718 32.4982C90.4895 35.151 88.0482 38.4075 86.5386 42.3392ZM62.7898 144.579C63.1337 146.97 63.8523 149.255 64.8315 151.458C64.9813 151.793 65.2028 152.111 65.4476 152.386C65.7973 152.779 66.182 152.679 66.3544 152.175C66.4343 151.941 66.4826 151.693 66.5184 151.446C66.6142 150.802 66.6874 150.154 66.7849 149.509C67.0904 147.489 67.476 145.484 68.3727 143.626C70.1621 139.917 71.297 136.02 71.7399 131.93C71.8282 131.112 71.8116 130.263 71.6983 129.448C71.5718 128.542 70.9897 128.383 70.3403 129.025C69.8981 129.462 69.491 129.938 69.0938 130.418C67.5018 132.34 65.9397 134.286 64.3277 136.191C63.4976 137.173 62.9106 138.244 62.7565 139.525C62.6591 140.336 62.61 141.152 62.5334 142.029C62.6133 142.845 62.6658 143.717 62.7898 144.579ZM38.4082 122.879C38.4099 123.085 38.5881 123.36 38.7671 123.469C38.8695 123.532 39.1676 123.358 39.3225 123.225C39.5406 123.039 39.7288 122.806 39.892 122.567C40.3949 121.836 40.8845 121.095 41.3699 120.352C42.6897 118.332 44.0819 116.354 44.9945 114.098C46.2026 111.108 47.2718 108.091 46.9703 104.782C46.9703 104.143 46.9429 103.504 46.9787 102.868C47.0095 102.317 47.0736 101.762 47.1943 101.225C47.2867 100.814 47.5191 100.41 47.9845 100.352C48.4166 100.297 48.6698 100.659 48.9046 100.969C49.3983 101.619 49.4933 102.39 49.5432 103.173C49.6773 105.29 49.4699 107.39 49.1352 109.472C48.7364 111.951 47.9862 114.323 46.8454 116.575C46.4749 117.306 46.116 118.13 46.0819 118.926C45.9895 121.055 46.0078 123.196 46.1127 125.325C46.1993 127.08 46.4766 128.826 46.6598 130.576C46.7397 131.333 46.7364 132.103 46.8804 132.846C47.0036 133.483 47.5074 133.583 48.0003 133.146C48.5382 132.67 48.8971 132.06 49.0628 131.388C49.38 130.097 49.7314 128.796 49.8488 127.48C50.0037 125.745 49.9687 123.99 49.972 122.244C49.9729 121.442 49.868 120.641 49.8163 119.839C49.7797 119.286 49.7181 118.732 49.7289 118.179C49.7397 117.634 49.8655 117.103 50.2793 116.694C50.5707 116.407 50.8863 116.353 51.1544 116.651C51.4808 117.014 51.8338 117.414 51.9795 117.862C52.2227 118.608 52.4159 119.401 52.4433 120.18C52.5299 122.604 52.5308 125.031 52.5599 127.457C52.5641 127.872 52.5224 128.289 52.5383 128.704C52.5699 129.514 53.1136 129.881 53.8697 129.615C54.0778 129.542 54.281 129.446 54.4767 129.343C57.0096 128.006 59.2594 126.264 61.3976 124.386C64.5559 121.611 66.9381 118.227 68.8365 114.501C70.1846 111.855 71.0905 109.051 71.7491 106.153C72.5076 102.811 73.0081 99.4339 73.0622 96.0201C73.0972 93.7828 72.8973 91.5288 72.6334 89.3014C72.1504 85.2148 71.0322 81.2864 69.3969 77.5011C67.8665 73.9616 66.6783 70.3246 66.2944 66.4502C66.0979 64.4685 65.9855 62.4977 66.1987 60.516C66.3444 59.1646 66.5051 57.8148 66.6716 56.466C66.8598 54.9405 66.4485 54.3052 65.0147 53.7798C62.9613 53.0271 60.8364 53.0413 58.7223 53.2536C55.7473 53.5517 53.1328 54.8614 50.7081 56.5201C46.922 59.1088 44.2676 62.6592 42.3158 66.7633C42.1443 67.1247 42.0877 67.5602 42.0644 67.9665C42.0427 68.3262 42.305 68.5011 42.6531 68.3986C42.9278 68.317 43.1909 68.1796 43.4416 68.0356C44.8837 67.2063 46.2942 66.3179 47.7655 65.5452C49.6406 64.561 51.6182 63.8266 53.7381 63.5626C54.3992 63.4802 55.0737 63.4594 55.6957 63.7749C56.4226 64.1438 56.5266 64.8416 55.8913 65.3387C55.5516 65.6051 55.1345 65.8049 54.7215 65.939C53.4683 66.3462 52.1977 66.6975 50.9404 67.0897C49.9587 67.3953 49.161 67.9873 48.5082 68.7708C48.1352 69.218 47.7705 69.6743 47.43 70.1464C44.9395 73.6002 43.1693 77.4129 41.8612 81.4487C41.071 83.8859 40.4815 86.3847 40.3333 88.9367C40.0977 93.0001 40.3516 97.0592 40.8096 101.103C40.8829 101.75 40.9403 102.402 40.9553 103.053C41.0019 105.093 40.9953 107.131 40.6938 109.157C40.459 110.733 40.2992 112.322 40.0019 113.886C39.5573 116.23 39.0027 118.553 38.5381 120.893C38.4099 121.54 38.4032 122.217 38.4082 122.879ZM38.3358 132.796C37.9286 133.472 37.1334 133.542 36.6055 132.956C36.3008 132.616 36.0177 132.192 35.8995 131.758C35.2467 129.358 35.046 126.94 35.2983 124.431C35.6763 120.67 36.5939 117.028 37.3891 113.357C37.8254 111.342 37.9894 109.299 38.2234 107.261C38.439 105.387 38.3558 103.531 38.1551 101.66C37.7662 98.0442 37.638 94.4156 37.6447 90.7769C37.6513 86.5845 38.5348 82.577 39.892 78.6427C40.116 77.9941 40.2833 77.3155 40.3824 76.6369C40.4557 76.1306 40.2792 76.0265 39.7538 75.9974C39.3425 75.9741 38.8978 76.0016 38.5281 75.855C37.6663 75.5145 37.3541 74.7368 37.414 73.8933C37.4856 72.8891 37.643 71.8783 37.8895 70.9024C38.5731 68.1971 39.643 65.6509 41.1185 63.2679C42.5656 60.9314 44.2501 58.7857 46.181 56.8423C49.2193 53.7823 52.8563 51.7515 57.0837 50.8739C59.8955 50.291 62.7107 50.3635 65.4759 51.2353C65.6075 51.2777 65.7416 51.316 65.8764 51.3477C67.0963 51.6341 67.7074 51.3685 68.217 50.2219C68.7457 49.0312 69.1696 47.7923 69.7125 46.6091C70.9598 43.8921 72.3736 41.266 74.2495 38.9196C74.8807 38.1294 75.5635 37.3808 76.2271 36.6165C76.3362 36.4916 76.4627 36.3808 76.586 36.2692C77.5702 35.3775 78.6326 35.3358 79.5319 36.3042C80.367 37.2043 81.0814 38.2193 81.835 39.1943C82.1397 39.589 82.382 40.0328 82.6976 40.4175C83.3221 41.1777 83.9274 41.1644 84.4686 40.3426C84.8558 39.7539 85.1556 39.1069 85.4828 38.4799C86.3754 36.7697 87.512 35.2351 88.8534 33.8537C89.8584 32.8187 90.8509 31.7646 91.9317 30.8121C93.9175 29.0593 96.1474 27.6547 98.5162 26.4723C99.3356 26.0635 100.157 25.6571 100.993 25.2841C101.55 25.036 102.127 24.8436 102.765 24.9361C103.287 25.011 103.734 25.2375 103.918 25.7138C104.19 26.4182 104.493 27.1542 104.537 27.892C104.624 29.3266 104.54 30.7721 104.528 32.2126C104.525 32.5307 104.493 32.8554 104.541 33.1668C104.657 33.9079 105.198 34.191 105.847 33.8154C106.384 33.5048 106.901 33.1418 107.367 32.7338C108.546 31.7022 109.766 30.7022 110.832 29.5614C112.267 28.0244 113.793 26.5389 114.822 24.6721C115.294 23.8145 115.645 22.8894 116.047 21.9935C116.245 21.5514 116.391 21.0801 116.64 20.6704C117.042 20.0118 117.732 19.8203 118.455 20.0951C119.136 20.354 119.661 20.8269 120.134 21.359C122.463 23.9769 123.934 27.0027 124.476 30.474C124.528 30.8137 124.626 31.1526 124.747 31.4749C124.915 31.9195 125.22 32.0336 125.644 31.8262C125.814 31.743 125.983 31.6231 126.104 31.479C127.178 30.1909 128.238 28.8903 129.308 27.5989C130.97 25.5914 132.633 23.583 134.31 21.5863C134.539 21.314 134.823 21.0726 135.122 20.8794C135.856 20.4073 136.562 20.6438 136.857 21.4606C136.972 21.7812 137.052 22.1375 137.045 22.4756C137.015 23.8603 136.972 25.2458 136.885 26.628C136.746 28.8145 136.573 30.9986 136.403 33.1826C136.224 35.4907 136.029 37.798 135.846 40.1061C135.778 40.9637 135.712 41.8213 135.67 42.6798C135.625 43.6149 136.026 44.2369 136.974 44.4433C137.776 44.6182 138.631 44.7373 139.442 44.6615C141.93 44.43 144.399 44.0437 146.799 43.3101C148.77 42.7073 150.662 41.9238 152.409 40.813C152.723 40.6132 153.055 40.4208 153.404 40.2984C154.261 39.9987 155.018 40.3867 155.155 41.2801C155.262 41.9812 155.28 42.7264 155.167 43.425C154.743 46.0304 154.145 48.6024 153.166 51.0604C152.716 52.1911 152.105 53.2569 151.568 54.3535C151.476 54.54 151.378 54.7241 151.301 54.9164C150.969 55.7532 151.132 56.3835 151.908 56.8506C153.823 58.0022 155.758 59.1096 157.912 59.7882C161.363 60.8757 165.218 59.6783 167.42 56.7998C167.764 56.3494 168.118 55.8973 168.525 55.5059C169.35 54.7132 170.465 54.9181 170.901 55.9739C171.117 56.4976 171.225 57.0971 171.246 57.6666C171.346 60.2395 170.927 62.7475 170.27 65.2312C169.365 68.6476 168.061 71.8908 166.235 74.9183C165.295 76.477 164.161 77.89 162.995 79.2913C161.734 80.8059 160.285 82.0699 158.635 83.1132C157.959 83.5403 157.216 83.8626 156.497 84.2198C156.162 84.3855 155.797 84.4946 155.47 84.6727C154.925 84.97 154.715 85.4355 154.868 86.0375C154.966 86.4246 155.112 86.8052 155.28 87.169C156.8 90.4538 157.879 93.8768 158.304 97.4722C158.558 99.6313 158.732 101.811 158.752 103.983C158.767 105.721 159.193 107.243 160.151 108.678C161.784 111.128 163.226 113.692 164.474 116.362C166.002 119.635 167.145 123.035 167.65 126.622C167.772 127.483 167.777 128.366 167.775 129.238C167.772 131.027 167.858 132.83 167.673 134.603C167.17 139.444 165.565 143.894 162.579 147.789C159.971 151.19 156.626 153.569 152.569 154.942C149.754 155.893 146.871 156.437 143.889 156.571C141.869 156.663 139.857 156.959 137.827 156.872C135.708 156.78 133.592 156.649 131.472 156.572C128.208 156.455 124.984 155.958 121.748 155.579C121.285 155.524 120.805 155.535 120.342 155.59C119.846 155.65 119.512 155.978 119.386 156.462C119.299 156.795 119.232 157.143 119.231 157.485C119.225 160.704 119.19 163.925 119.259 167.142C119.299 169.011 119.496 170.877 119.656 172.741C119.756 173.918 120.247 174.952 121.108 175.753C122.833 177.358 124.492 179.041 126.422 180.413C127.44 181.137 128.472 181.843 129.462 182.602C129.86 182.909 130.228 183.297 130.498 183.72C130.888 184.33 130.582 184.876 129.852 184.959C129.011 185.056 128.212 185.01 127.493 184.439C125.691 183.006 123.862 181.608 122.045 180.195C121.815 180.017 121.591 179.83 121.358 179.655C120.71 179.168 119.994 179.026 119.241 179.341C118.909 179.479 118.692 179.384 118.453 179.183C117.807 178.642 117.501 177.922 117.416 177.114C117.255 175.611 117.123 174.105 116.998 172.599C116.899 171.397 116.811 170.194 116.748 168.99C116.69 167.896 116.658 166.801 116.64 165.705C116.621 164.624 116.635 163.541 116.635 162.459H116.586C116.586 160.738 116.59 159.017 116.583 157.297C116.581 156.952 116.555 156.604 116.511 156.261C116.404 155.44 115.931 154.909 115.133 154.731C114.294 154.544 113.441 154.423 112.595 154.271C111.531 154.08 110.463 153.898 109.401 153.69C108.644 153.542 108.042 153.132 107.653 152.46C107.576 152.329 107.555 152.046 107.64 151.959C108.04 151.548 108.501 151.201 109.119 151.216C109.493 151.225 109.868 151.258 110.237 151.311C113.959 151.845 117.673 152.435 121.402 152.907C124.635 153.317 127.878 153.693 131.128 153.902C134.183 154.097 137.238 154.465 140.309 154.272C144.279 154.022 148.224 153.595 152.005 152.274C156.91 150.559 160.376 147.229 162.628 142.585C164.081 139.589 164.918 136.418 165.157 133.109C165.482 128.605 164.905 124.223 163.185 120.014C161.778 116.576 160.019 113.318 158.123 110.133C156.817 107.939 156.217 105.619 156.156 103.057C156.021 97.3623 154.801 91.9143 151.951 86.9109C151.768 86.5912 151.523 86.2947 151.262 86.0333C150.963 85.7335 150.457 85.7027 150.208 86.0091C149.157 87.3047 147.687 87.6037 146.172 87.6386C143.427 87.7028 140.672 87.7794 137.935 87.622C134.888 87.4463 131.878 86.8726 128.901 86.179C125.488 85.3838 122.154 84.3155 118.944 82.9258C117.015 82.0907 115.197 81.0016 113.337 80.0099C111.368 78.9608 109.644 77.5528 107.869 76.2222C107.295 75.7909 106.8 75.253 106.241 74.8C105.812 74.4528 105.358 74.1239 104.877 73.8575C104.277 73.5252 103.734 73.7667 103.621 74.437C103.478 75.2821 103.43 76.1439 103.332 76.9974C103.251 77.7143 103.158 78.4296 103.07 79.1456C103.065 79.1873 103.062 79.2281 103.055 79.2697C102.792 81.0649 101.651 81.7926 99.9276 81.2156C98.249 80.6527 96.7802 79.6985 95.4105 78.6011C93.2114 76.84 91.3197 74.7776 89.6186 72.5377C88.9974 71.7209 88.4012 70.8841 87.7884 70.0614C87.6727 69.9066 87.5394 69.7617 87.3954 69.6335C86.9449 69.2346 86.4387 69.2213 86.0224 69.6518C85.7168 69.9682 85.4786 70.3495 85.2139 70.7042C84.7576 71.3146 84.3429 71.9607 83.8333 72.5219C83.581 72.7984 83.173 72.9757 82.8033 73.0939C82.3754 73.2305 82.1206 73.029 82.009 72.5927C81.8533 71.984 81.9615 71.4053 82.2321 70.8541C82.6593 69.9823 83.1431 69.1355 83.5236 68.2438C84.5769 65.7725 85.2405 63.2021 85.2547 60.4968C85.2663 58.237 85.3263 55.9764 84.8725 53.7365C84.0806 49.8289 82.78 46.1161 80.765 42.6665C80.2679 41.8163 79.7575 40.9737 79.2396 40.1369C79.1097 39.9271 78.9374 39.7381 78.7617 39.5624C78.1447 38.9462 77.5152 38.9271 76.9273 39.5848C76.4128 40.1619 75.9498 40.7914 75.5152 41.4325C72.3853 46.0462 70.3428 51.1154 69.3478 56.59C68.879 59.1679 68.5293 61.7807 68.7083 64.4119C68.8865 67.0314 69.2087 69.6385 70.1687 72.1131C71.0155 74.2971 71.9056 76.4653 72.7566 78.6485C74.1463 82.2131 74.9307 85.9167 75.3853 89.7119C75.6434 91.871 75.6925 94.0259 75.6967 96.1899C75.7025 98.6529 75.4402 101.095 75.0572 103.519C74.8024 105.131 74.7949 106.701 75.1055 108.309C75.3919 109.79 75.6018 111.302 75.6542 112.806C75.7017 114.183 75.496 115.569 75.3969 116.951C75.2887 118.447 74.8765 119.878 74.3386 121.263C73.7774 122.708 73.6725 124.135 74.1496 125.614C74.267 125.98 74.3278 126.373 74.3553 126.758C74.5776 129.801 74.466 132.826 73.8965 135.834C73.5043 137.905 72.8507 139.887 72.0672 141.835C71.6434 142.887 71.5526 143.966 71.6633 145.101C71.9106 147.611 72.2495 150.116 72.2029 152.649C72.1971 152.981 72.2171 153.318 72.2687 153.645C72.6634 156.169 72.5185 158.713 72.5401 161.249C72.5626 163.843 72.4943 166.44 72.5634 169.032C72.6176 171.071 71.8499 172.699 70.6109 174.272C68.68 176.719 66.4701 178.869 64.0838 180.842C62.376 182.253 60.5658 183.541 58.8023 184.886C58.2844 185.281 57.107 185.305 56.4634 184.654C56.4051 184.595 56.4126 184.427 56.4459 184.33C56.6765 183.656 57.0845 183.103 57.6399 182.66C59.5067 181.174 61.4526 179.777 63.2203 178.182C65.0796 176.505 66.8182 174.683 68.5143 172.837C69.5334 171.729 69.8856 170.273 69.9273 168.785C69.9731 167.192 69.9423 165.594 69.9306 163.998C69.9239 162.967 69.496 162.14 68.7258 161.449C65.0163 158.118 62.4751 154.05 61.1595 149.24C60.7906 147.892 60.5583 146.507 60.2611 145.139C60.2053 144.882 60.162 144.619 60.077 144.371C59.8797 143.795 59.376 143.658 59.0054 144.141C58.5791 144.697 58.1753 145.303 57.9188 145.949C56.5908 149.289 56.2452 152.714 57.1644 156.228C57.3077 156.777 57.4384 157.34 57.4775 157.902C57.5067 158.331 57.4459 158.793 57.3077 159.201C57.1045 159.802 56.4758 160.096 55.8863 159.853C55.4359 159.668 55.0071 159.38 54.6365 159.059C53.5025 158.076 52.6881 156.827 51.883 155.579C50.0395 152.719 48.6281 149.673 47.9928 146.31C47.8463 145.537 47.7505 144.743 47.7389 143.957C47.7164 142.529 47.7763 141.1 47.7988 139.672C47.8188 138.369 47.4899 138.139 46.2459 138.571C45.4866 138.835 44.7363 139.14 43.9595 139.334C43.4449 139.463 42.8887 139.463 42.3533 139.45C42.076 139.444 41.7804 139.325 41.5323 139.188C40.8595 138.817 40.708 138.204 41.1501 137.585C41.3799 137.262 41.6705 136.97 41.9778 136.717C43.3158 135.617 43.9753 134.199 44.0469 132.481C44.1435 130.152 43.8737 127.855 43.4449 125.572C43.3825 125.241 43.2426 124.905 43.0619 124.618C42.8354 124.259 42.5373 124.239 42.2201 124.519C42.0036 124.711 41.7904 124.922 41.6339 125.162C40.4074 127.05 39.4599 129.057 38.9553 131.267C38.8345 131.798 38.6164 132.33 38.3358 132.796Z" fill="black"/>
<path d="M60.1061 94.6446C60.1094 95.3457 59.9304 96.0468 59.8588 96.7496C59.624 99.0602 59.1427 101.302 58.0028 103.353C57.7155 103.87 57.3692 104.362 56.9878 104.813C56.6839 105.173 56.3092 105.153 56.0369 104.766C55.8121 104.447 55.6497 104.06 55.5507 103.68C55.3075 102.755 55.1193 101.815 54.9062 100.882C54.4049 98.678 53.8512 96.4848 53.4132 94.2691C52.9628 91.9943 53.1093 89.7187 53.9295 87.5446C55.3492 83.7836 57.6498 80.6636 60.9087 78.2714C61.8097 77.6103 62.8105 77.0583 63.445 76.0832C63.5016 75.9958 63.6098 75.9359 63.7048 75.8809C63.9279 75.751 64.1211 75.562 63.9904 75.318C63.9204 75.1873 63.6606 75.1149 63.4775 75.0957C62.0645 74.9425 60.8596 75.4971 59.7647 76.2972C57.4016 78.0241 55.2276 79.9351 53.6331 82.4455C52.5706 84.1191 51.5939 85.8144 51.1226 87.7603C50.4782 90.4181 50.4024 93.0892 50.9936 95.762C51.5773 98.4024 52.1976 101.035 52.8171 103.668C53.1826 105.219 53.3341 106.783 53.2026 108.374C53.1576 108.926 53.0985 109.482 53.1168 110.034C53.1576 111.256 54.0744 111.802 55.161 111.242C55.5731 111.029 55.9445 110.72 56.2942 110.409C57.4399 109.393 58.2393 108.101 59.0686 106.838C60.6082 104.49 61.6423 101.941 62.1685 99.1742C62.5016 97.4248 62.44 95.6671 62.3659 93.9069C62.3659 92.6046 62.3892 91.3015 62.355 89.9993C62.3401 89.4081 62.1252 88.8577 61.6831 88.4281C61.0911 87.8544 60.7106 88.0217 60.3384 88.5954C60.1544 88.8777 60.0078 89.2216 59.9662 89.553C59.8979 90.0984 59.9004 90.6571 59.9237 91.2083C59.9728 92.3548 60.1011 93.4989 60.1061 94.6446ZM38.767 123.469C38.588 123.36 38.4098 123.085 38.4081 122.879C38.4031 122.217 38.4098 121.54 38.538 120.893C39.0026 118.553 39.5572 116.23 40.0018 113.886C40.299 112.323 40.4589 110.733 40.6937 109.157C40.9951 107.131 41.0018 105.093 40.9552 103.053C40.9402 102.402 40.8827 101.75 40.8095 101.103C40.3515 97.0593 40.0975 93.0001 40.3332 88.9368C40.4814 86.3848 41.0709 83.886 41.8611 81.4488C43.1692 77.413 44.9394 73.6003 47.4298 70.1465C47.7704 69.6743 48.1351 69.2181 48.5081 68.7709C49.1609 67.9874 49.9586 67.3954 50.9403 67.0898C52.1976 66.6976 53.4682 66.3462 54.7213 65.9391C55.1343 65.805 55.5515 65.6052 55.8912 65.3387C56.5265 64.8417 56.4224 64.1439 55.6955 63.775C55.0735 63.4595 54.3991 63.4803 53.738 63.5627C51.6181 63.8267 49.6405 64.561 47.7654 65.5452C46.2941 66.3179 44.8836 67.2064 43.4415 68.0357C43.1908 68.1797 42.9277 68.3171 42.6529 68.3987C42.3049 68.5011 42.0426 68.3263 42.0643 67.9666C42.0876 67.5602 42.1442 67.1248 42.3157 66.7634C44.2674 62.6593 46.9219 59.1089 50.708 56.5202C53.1326 54.8615 55.7472 53.5518 58.7222 53.2537C60.8363 53.0414 62.9612 53.0272 65.0145 53.7799C66.4483 54.3053 66.8597 54.9406 66.6715 56.466C66.505 57.8149 66.3443 59.1647 66.1986 60.516C65.9854 62.4977 66.0978 64.4686 66.2943 66.4503C66.6782 70.3246 67.8663 73.9616 69.3968 77.5012C71.0321 81.2865 72.1503 85.2149 72.6333 89.3015C72.8972 91.5289 73.097 93.7828 73.0621 96.0202C73.0079 99.434 72.5075 102.811 71.749 106.153C71.0904 109.051 70.1844 111.855 68.8364 114.501C66.9379 118.227 64.5557 121.611 61.3975 124.386C59.2593 126.264 57.0095 128.006 54.4765 129.343C54.2809 129.446 54.0777 129.542 53.8695 129.615C53.1135 129.881 52.5698 129.514 52.5381 128.704C52.5223 128.289 52.5639 127.872 52.5598 127.457C52.5306 125.031 52.5298 122.604 52.4432 120.18C52.4157 119.401 52.2226 118.608 51.9794 117.862C51.8337 117.414 51.4807 117.014 51.1543 116.651C50.8862 116.353 50.5706 116.407 50.2792 116.694C49.8653 117.103 49.7396 117.634 49.7288 118.179C49.718 118.732 49.7796 119.286 49.8162 119.839C49.8678 120.642 49.9727 121.443 49.9719 122.244C49.9686 123.99 50.0036 125.745 49.8487 127.48C49.7313 128.797 49.3799 130.097 49.0627 131.388C48.897 132.061 48.5381 132.67 48.0002 133.146C47.5073 133.583 47.0035 133.483 46.8803 132.846C46.7362 132.103 46.7396 131.333 46.6596 130.576C46.4765 128.826 46.1992 127.08 46.1126 125.325C46.0077 123.196 45.9894 121.055 46.0818 118.926C46.1159 118.13 46.4748 117.306 46.8453 116.575C47.986 114.323 48.7363 111.951 49.1351 109.472C49.4698 107.39 49.6772 105.29 49.5431 103.173C49.4931 102.39 49.3982 101.619 48.9045 100.969C48.6697 100.659 48.4165 100.297 47.9844 100.352C47.5189 100.41 47.2866 100.815 47.1942 101.225C47.0735 101.762 47.0093 102.317 46.9785 102.868C46.9427 103.504 46.9702 104.143 46.9702 104.782C47.2716 108.091 46.2025 111.109 44.9943 114.098C44.0818 116.354 42.6896 118.332 41.3698 120.352C40.8844 121.095 40.3948 121.836 39.8919 122.567C39.7287 122.806 39.5405 123.039 39.3223 123.225C39.1675 123.358 38.8694 123.532 38.767 123.469Z" fill="#FAB8D4"/>
</svg>
